<svg xmlns="http://www.w3.org/2000/svg" width="664" height="664"><path fill="#fdb91c" d="M314 184c2.438 1.625 2.438 1.625 4 4 .508 4.066-.052 6.47-2 10v3a111 111 0 0 1-3.125 5.125c-3.94 6.514-6.282 13.257-8.613 20.48C303 230 303 230 301 231l.07 2.336.055 3.039.07 3.023C301 242 301 242 299 244c-2.677 29.199 8.183 56.528 26.348 78.879C337.19 336.815 352.113 347.067 369 354l2.66 1.094c22.34 8.295 49.145 8.608 71.34-.094 3.25-.5 3.25-.5 6 0 2.871 2.191 3.837 3.932 4.383 7.5.275 6.611-.949 10.881-4.383 16.5l-1 1-.848 2.676c-1.201 3.465-2.729 6.355-4.59 9.512l-1.808 3.105c-1.96 3.024-3.528 5.094-6.754 6.707-.625 2.063-.625 2.063-1 4h-2l-1 3-2 2a619 619 0 0 0-2.75 3.312c-2.849 3.33-5.712 6.093-9.25 8.688h-3l-.688 1.75c-1.66 2.847-3.707 4.238-6.312 6.25l-2.262 1.859c-7.033 5.482-14.497 8.935-22.699 12.379C377 447 377 447 374.234 448.727c-2.51 1.43-3.766 1.546-6.609 1.335-3.16-.119-4.999.045-8.125.938-3.607 1.031-6.361 1.098-10.062 1.004-2.599-.004-5.104.222-7.688.496-4.156.425-8.198.511-12.375.438-5.462-.059-10.112.635-15.375 2.062l-1.625-2.375c-2.691-2.974-4.563-3.608-8.375-4.625l-1-1-3.75.125c-4.01.05-5.873-.901-9.25-3.125l-4.133-1.312C274.059 438.593 263.368 431.195 254 423l-2.027-1.699C236.805 408.416 236.805 408.416 235 403l-2.438-1.875c-2.839-2.355-3.254-3.774-4.562-7.125l-2.562-2.5c-2.704-2.773-2.797-3.836-3.438-7.5l-1.938-2.312c-2.017-2.629-2.468-3.817-3.124-6.938L216 371l-3-1-.148-1.934-.227-2.504-.211-2.496L212 361l-2-1c-6.913-22.981-8.71-47.597-3-71l.879-4.074c2.028-8.935 4.982-16.773 9.121-24.926l1.473-3.086C233.989 224.724 261.626 200.502 295 188l2.367-.926c5.721-2.211 10.444-3.627 16.633-3.074"/><path fill="#0b411d" d="M314 184c2.438 1.625 2.438 1.625 4 4 .508 4.066-.052 6.47-2 10v3a111 111 0 0 1-3.125 5.125c-3.94 6.514-6.282 13.257-8.613 20.48C303 230 303 230 301 231l.07 2.336.055 3.039.07 3.023C301 242 301 242 299 244c-2.677 29.199 8.183 56.528 26.348 78.879C337.19 336.815 352.113 347.067 369 354l2.66 1.094c15.138 5.62 31.354 6.427 47.34 5.906l.312 1.938L420 365l3 1 1 5-7 2 3 2c-34.357.969-64.557-6.074-91-29l-2.445-2.043C303.448 324.074 289.52 295.927 285 266c-.755-15.41-1.072-30.304 4-45l1.051-3.41c1.603-5.096 3.353-9.917 5.949-14.59-28.973 10.147-51.366 32.158-65.188 59.16-14.116 29.906-16.41 61.102-6.562 92.715 11.376 31.493 33.389 55.8 63.512 70.27 23.164 10.14 47.565 13.059 72.238 6.855l2.809-.621c18.598-4.449 34.339-14.638 48.546-27.094C414 402 414 402 417 400a90 90 0 0 1 4 4v2h2v2h-3l.754 2.73c.246 3.27.246 3.27-1.352 5.508-24.291 20.442-53.719 32.853-85.59 32.95l-6.417.042c-6.305-.227-12.188-1.151-18.395-2.23-3.653-.081-7.224.053-10.871.223-3.637-.259-5.078-1.286-8.129-3.223l-4.285-1.395C273.96 438.603 263.304 431.139 254 423l-2.027-1.699C236.805 408.416 236.805 408.416 235 403l-2.438-1.875c-2.839-2.355-3.254-3.774-4.562-7.125l-2.562-2.5c-2.704-2.773-2.797-3.836-3.438-7.5l-1.938-2.312c-2.017-2.629-2.468-3.817-3.124-6.938L216 371l-3-1-.148-1.934-.227-2.504-.211-2.496L212 361l-2-1c-6.913-22.981-8.71-47.597-3-71l.879-4.074c2.028-8.935 4.982-16.773 9.121-24.926l1.473-3.086C233.989 224.724 261.626 200.502 295 188l2.367-.926c5.721-2.211 10.444-3.627 16.633-3.074"/><path fill="#b1d589" d="M295 202l2 1-.953 1.949c-13.261 28-13.536 59.064-3.359 88.176C298.253 307.059 305.294 319.552 315 331l2.621 3.117C337.077 356.312 364.796 370.352 394 374a182 182 0 0 0 17 0v-1l12-3c-.995-3.979-1.306-4.423-4-7v-2l3.98-.805 5.208-1.07 5.167-1.055c3.481-.802 6.4-1.673 9.645-3.07 3.062-.438 3.062-.438 6 0 2.871 2.191 3.837 3.932 4.383 7.5.275 6.611-.949 10.881-4.383 16.5l-1 1-.848 2.676c-1.201 3.465-2.729 6.355-4.59 9.512l-1.808 3.105c-1.96 3.024-3.528 5.094-6.754 6.707-.625 2.063-.625 2.063-1 4h-2l-1 3-2 2a619 619 0 0 0-2.75 3.312c-2.849 3.33-5.712 6.093-9.25 8.688h-3l-.688 1.75c-1.66 2.847-3.707 4.238-6.312 6.25l-2.262 1.859c-7.033 5.482-14.497 8.935-22.699 12.379C377 447 377 447 374.234 448.727c-2.51 1.43-3.766 1.546-6.609 1.335-3.16-.119-4.999.045-8.125.938-3.607 1.031-6.361 1.098-10.062 1.004-2.599-.004-5.104.222-7.688.496-4.156.425-8.198.511-12.375.438-5.462-.059-10.112.635-15.375 2.062l-1.625-2.375c-2.677-2.959-4.559-3.671-8.375-4.625 3-2 3-2 5.477-1.758l3.148.633c16.324 2.591 33.358 2.263 49.375-1.875l4.188-1.031C376.509 441.201 385.64 437.113 395 432l3.211-1.684c7.894-4.32 15.812-9.539 21.789-16.316.359-3.34.359-3.34 0-6h3v-2h-2v-2l-1.938-.812C417 402 417 402 416 399l1.469-1.512c6.803-7.287 12.218-15.492 16.531-24.488l-1.973.84c-3.77 1.445-7.591 2.581-11.465 3.722l-4.433 1.317c-27.438 7.45-56.933.967-81.129-12.879-8.648-5.595-16.599-11.842-24-19l-3.414-3.273c-22.407-23.286-33.134-54.828-32.836-86.645.291-7.071 1.206-13.33 3.25-20.082l1.242-4.184a492 492 0 0 1 4.871-15.074c.938-2.901 1.456-5.727 1.887-8.742l-6 1c3.031-2.442 6.09-4.13 9.625-5.75l2.914-1.359Z"/><path fill="#043d18" d="M416 199c3.719 2.975 4.423 6.352 5.438 10.812 1.943 8.504 5.35 14.097 12.562 19.188 4.16 2.53 8.021 4.105 12.812 5 2.857.571 3.986.829 6.25 2.75 1.623 3.893 1.258 7.05.188 11.062C452 250 452 250 450.188 250.688L448 251c-6.122 2.211-11.842 5.032-17 9h-2v2h-2c-1.555 4.545-2.951 9.126-4.316 13.73-.985 3.269-2.117 6.241-3.684 9.27h-3l-1 2c-6.469-.488-6.469-.488-8.613-2.555-2.523-4.448-3.099-9.534-4.129-14.5-1.978-6.202-5.964-10.289-11.258-13.945-2.303-1.097-4.633-2.044-7-3l-1-1-3.75-.125c-2.598-.295-3.91-.589-5.926-2.285-2.401-3.078-3.324-4.876-3.324-8.84 1.048-2.881 1.635-3.885 4-5.75 2.602-.738 2.602-.738 5.625-1.312 8.685-2.017 15.343-6.211 20.375-13.688 2.62-5.533 4.502-11.312 6.191-17.188 1.941-4.349 5.634-4.408 9.809-3.812"/><path fill="#053c17" d="M243 393c3.986 2.155 6.688 4.617 9.75 7.938 22.203 22.53 51.594 33.748 82.812 34.374 8.467-.096 16.243-1.251 24.438-3.312l2.809-.621c18.598-4.449 34.339-14.638 48.546-27.094C414 402 414 402 417 400a90 90 0 0 1 4 4v2h2v2h-3l.754 2.73c.246 3.27.246 3.27-1.352 5.508C390.618 440.461 358.17 450.229 321 449c-28.787-2.773-57.35-16.744-77-38-.188-2.75-.188-2.75 1-5 2.062-1.812 2.062-1.812 4-3-1.099-2.565-2.128-4.128-4.125-6.125L243 395Z"/><path fill="#f8f8f5" d="M286 209c-.815 4.167-1.355 6.442-4.617 9.266l-3.258 1.984c-7.091 4.61-13.106 9.824-19.125 15.75l-2.363 2.289c-22.659 23.423-30.046 54.46-29.914 85.949.315 8.821 1.404 16.447 4.277 24.762l1.285 3.785c5.242 14.12 12.57 27.063 22.715 38.215l1.852 2.098c15.19 16.257 36.701 26.309 58.136 31.129L317 425l1 3c-14.072.56-25.905-3.003-39-8l-2.629-.93c-22.411-8.667-38.8-32.413-48.66-53.16-12.8-29.253-14.189-60.514-3.438-90.598C231.319 257.715 240.771 242.554 254 229l1.762-1.949C263.094 219.127 274.596 209 286 209"/><path fill="#053e19" d="M214 266c1.562 1.25 1.562 1.25 3 3-.312 2.188-.312 2.188-1 4l2 1v2h3l1-4h2v-2l3 1-1.207 3.234c-10.907 30.678-10.288 61.853 2.988 91.782 3.813 7.958 8.146 15.149 13.434 22.214 1.781 2.764 2.227 4.593 2.785 7.77 2.562 2.812 2.562 2.812 5 5-1.37 3.161-1.989 3.993-5 6 .124 4.076 1.242 5.26 4.082 8.32C264.31 429.622 283.727 439.96 304 445l-1 2c-5.618.286-8.245.131-13-3l-4.133-1.312C274.059 438.593 263.368 431.195 254 423l-2.027-1.699C236.805 408.416 236.805 408.416 235 403l-2.438-1.875c-2.839-2.355-3.254-3.774-4.562-7.125l-2.562-2.5c-2.704-2.773-2.797-3.836-3.438-7.5l-1.938-2.312c-2.017-2.629-2.468-3.817-3.124-6.938L216 371l-3-1-.148-1.934-.227-2.504-.211-2.496L212 361l-2-1c-6.907-22.961-8.742-47.619-3-71l.984-4.285c1.552-6.535 3.238-12.582 6.016-18.715"/><path fill="#09411c" d="M303 292c1.77.043 1.77.043 4 1 1.824 3.176 1.824 3.176 3.688 7.312 3.682 7.685 7.875 14.149 13.312 20.688l2.148 2.609C337.795 337.148 352.443 347.368 369 354l2.648 1.086c15.133 5.638 31.367 6.435 47.352 5.914l.312 1.938L420 365l3 1 1 5-7 2 3 2c-34.357.969-64.557-6.074-91-29l-2.445-2.043C313.42 332.655 303.213 318.761 296 303c.082-3.431.726-4.673 2.938-7.312C301 294 301 294 303 294Z"/><path fill="#0e4420" d="M449 355c2.871 2.191 3.837 3.932 4.383 7.5.275 6.611-.949 10.881-4.383 16.5l-1 1-.848 2.676c-1.201 3.465-2.729 6.355-4.59 9.512l-1.808 3.105c-1.96 3.024-3.528 5.094-6.754 6.707-.625 2.063-.625 2.063-1 4h-2l-1 3-2 2a619 619 0 0 0-2.75 3.312c-2.849 3.33-5.712 6.093-9.25 8.688h-3l-.688 1.75c-1.66 2.847-3.707 4.238-6.312 6.25l-2.262 1.859c-7.033 5.482-14.497 8.935-22.699 12.379C377 447 377 447 374.234 448.727c-2.51 1.43-3.766 1.546-6.609 1.335-3.16-.119-4.999.045-8.125.938-3.607 1.031-6.361 1.098-10.062 1.004-2.599-.004-5.104.222-7.688.496-4.156.425-8.198.511-12.375.438-5.462-.059-10.112.635-15.375 2.062l-1.625-2.375c-2.677-2.959-4.559-3.671-8.375-4.625 3-2 3-2 5.477-1.758l3.148.633c16.324 2.591 33.358 2.263 49.375-1.875l4.188-1.031C376.509 441.201 385.64 437.113 395 432l3.211-1.684c7.894-4.32 15.812-9.539 21.789-16.316.359-3.34.359-3.34 0-6h3v-2h-2v-2l-1.938-.812C417 402 417 402 416 399l1.469-1.512c6.803-7.287 12.218-15.492 16.531-24.488l-3.062.5c-6.609.849-13.289.578-19.938.5v-1l12-3c-.995-3.979-1.306-4.423-4-7v-2l3.98-.805 5.208-1.07 5.167-1.055c14.235-3.28 14.235-3.28 15.645-3.07"/><path fill="#043b17" d="M298 190l-2 1v6l4 2c-3.873 3.367-7.807 5.498-12.438 7.688C274.437 213.161 263.373 220.656 253 231l-2.582 2.512C240.35 243.865 232.958 256.9 227 270h-3v2h-2v6l-1-2h-3v-2l-3-1 .562-1.688c.438-2.312.438-2.312-.253-4.48-1.011-9.278 9.246-22.405 14.691-29.832 12.643-15.723 45.31-53.982 68-47"/><path fill="#215232" d="M412 225l1.688 2.125L416 230l2.312 3c2.788 3.363 6.066 5.585 9.688 8-5 5-5 5-7.688 7.312-3.024 3.515-3.469 6.168-4.312 10.688l3-1 2 2c-.312 2.312-.312 2.312-1 5l-.562 2.812L419 270h2l.562-2.5c2.996-7.295 8.807-12.448 15.438-16.5 3.053-1.065 4.211-1.367 7.145-.004L446 252l-2.012.734c-4.995 1.896-8.923 3.709-12.988 7.266h-2v2h-2c-1.555 4.545-2.951 9.126-4.316 13.73-.985 3.269-2.117 6.241-3.684 9.27h-3l-1 2c-6.469-.488-6.469-.488-8.613-2.555-2.523-4.448-3.099-9.534-4.129-14.5-1.978-6.202-5.964-10.289-11.258-13.945-2.303-1.097-4.633-2.044-7-3l-1-1a69 69 0 0 0-4.062-.562L375 251c3.228-2.152 4.284-2.201 8-2v-2l7-1-3 6h8v3l3 1 2 2 2 1v2l4 1 1-5h2c-.491-4.255-3.061-7.09-6-10-2.269-1.799-4.587-3.391-7-5 2.535-2.641 5.203-5.021 8-7.375 3.403-2.939 5.735-5.756 8-9.625"/><path fill="#aacf80" d="M295 202l2 1-.953 1.949C283.994 230.398 282.902 257.832 290 285c.754 3.379.754 3.379 1 6l-2 2v-2l-7 2-2-5-2 1c-5.423-16.237-4.936-35.695 0-52l1.242-4.184a492 492 0 0 1 4.871-15.074c.938-2.901 1.456-5.727 1.887-8.742l-6 1c3.031-2.442 6.09-4.13 9.625-5.75l2.914-1.359Z"/><path fill="#043c18" d="M225 366c4.779 2.299 6.44 4.987 8.875 9.625 2.909 5.358 5.965 10.019 9.973 14.605L245 392l-1 3 6 6c-1.37 3.161-1.989 3.993-5 6 .124 4.076 1.242 5.26 4.082 8.32C264.31 429.622 283.727 439.96 304 445l-1 2c-5.618.286-8.245.131-13-3l-4.133-1.312C274.059 438.593 263.368 431.195 254 423l-2.027-1.699C236.805 408.416 236.805 408.416 235 403l-2.438-1.875c-2.839-2.355-3.254-3.774-4.562-7.125l-2.562-2.5c-2.672-2.74-2.978-3.82-3.438-7.5l-1.125-2.5c-1.577-4.507.246-8.3 2.125-12.5Z"/><path fill="#073f19" d="M372 357c6.196.638 12.296 1.532 18.438 2.562 9.59 1.476 18.878 1.754 28.562 1.438l.312 1.938L420 365l3 1 1 5-7 2 3 2c-16.772.473-32.925.358-49-5v-3l-4-1v-3q1.977-1.53 4-3Z"/><path fill="#e2e4e3" d="M445 380h3c-1.333 4.436-3.087 8.2-5.438 12.188l-1.808 3.105c-1.96 3.024-3.528 5.094-6.754 6.707-.625 2.062-.625 2.062-1 4h-2l-1 3-2 2a619 619 0 0 0-2.75 3.312c-2.849 3.33-5.712 6.093-9.25 8.688h-3l-.688 1.75c-1.66 2.847-3.707 4.238-6.312 6.25l-2.262 1.859c-7.033 5.482-14.497 8.935-22.699 12.379C377 447 377 447 374.234 448.727c-2.51 1.43-3.766 1.546-6.609 1.335-3.16-.119-4.999.045-8.125.938-3.607 1.031-6.361 1.098-10.062 1.004-2.599-.004-5.104.222-7.688.496-4.156.425-8.198.511-12.375.438-5.462-.059-10.112.635-15.375 2.062l-1.625-2.375c-2.677-2.959-4.559-3.671-8.375-4.625 3-2 3-2 5.477-1.758l3.148.633c16.324 2.591 33.358 2.263 49.375-1.875l4.188-1.031C376.51 441.201 385.638 437.11 395 432l3.176-1.648C418.564 419.28 434.709 400.581 445 380"/><path fill="#053c18" d="M395 226c2 3 2 3 2 6h3l-1 6h-4c1.452 3.576 3.251 5.165 6.375 7.375 3.87 2.915 6.49 5.257 8.625 9.625-.25 2.375-.25 2.375-1 4l-2-1-1 4h-5l1-3-4 1-.375-1.938L397 256l-2-1v-3l-2.875.562C389 253 389 253 387 252l1-4h-2l-3-1v2c-8.044.774-8.044.774-11.625-2.125-1.7-3.555-1.587-5.158-.375-8.875 2.408-3.187 4.794-3.585 8.625-4.312 6.115-1.384 10.466-3.858 15.375-7.688"/><path fill="#134825" d="M431 228l2.09 1.023c4.605 2.186 8.873 4.135 13.91 5.039 2.816.55 3.823.788 6.062 2.688 1.623 3.893 1.258 7.05.188 11.062-1.25 2.188-1.25 2.188-2.875 3-2.375.188-2.375.188-6.125 0-6.562-.048-11.309 3.067-16 7.438-3.374 3.559-5.288 7.277-7.25 11.75h-2c-.1-3.492.222-6.594 1-10l-4-1c.092-5.221.525-8.031 4.25-11.812 2.732-2.469 5.526-4.397 8.75-6.188 2.426-2.067 3.699-4.098 5-7l5 1v-2l-3 1-2-1v-2l-3 1Z"/><path fill="#f2f4f1" d="M229 264l2 1v3h-2l1 3a150 150 0 0 1-1 6v3h2c-.418 5.017-1.14 9.49-2.527 14.344-1.693 7.648-1.799 14.578-1.723 22.406l.047 8.109c.147 5.168.394 10.051 1.203 15.141l-4-1v13c-3.058-3.058-3.167-6.503-4.062-10.688l-1.036-4.761c-4.968-25.057-.073-49.393 10.098-72.551"/><path fill="#053d17" d="M367 431v2h2v5l6 1 1 3c-22.411 7.032-43.569 9.416-67 5v-3c7.75.875 7.75.875 10 2 4.265-.18 8.509-.52 12.766-.844 3.65-.134 6.683.075 10.234.844v-6l-5-1v-1l8-2v-1l3.141-.621 4.109-.817 4.078-.808c1.998-.41 3.995-.838 5.969-1.352C364 431 364 431 367 431"/><path fill="#0e4421" d="M217 325h1l.699 4.285c1.936 11.316 4.307 21.957 8.301 32.715a796 796 0 0 1 2 6l-2 2-2-2c-2.93 2.93-3.941 5.68-4.125 9.812L221 380h-3l-.438-2.25L217 375l-.375-2.25L216 371l-3-1-.148-1.934-.227-2.504-.211-2.496L212 361l-2-1c-3.025-9.816-4.644-19.751-5-30h1v5l2 1-1 5 2 1-1 4h2v-2l7-2c0-2.31-.291-4.519-.562-6.812-.378-3.627-.5-6.647.562-10.188"/><path fill="#67a621" d="M412 225l1.688 2.125L416 230l2.312 3c2.788 3.363 6.066 5.585 9.688 8l-2.062 2.062-1.376 1.379a511 511 0 0 1-3.312 3.274l-1.812 1.785-1.692 1.656c-2.06 2.176-3.9 4.485-5.746 6.844l-1.469-1.977C406.202 250.378 401.962 245.9 396 242c2.535-2.641 5.203-5.021 8-7.375 3.403-2.939 5.735-5.756 8-9.625"/><path fill="#033c16" d="M316.438 434.313c6.874.495 13.74.916 20.625 1.25l5.16.254 3.776.183-6 3 2 1v6l-28 1v-2c-.329.166-.329.166-2 1-8.205.264-8.205.264-12-1 .474-4.262 2.923-6.216 6-9 3.903-2.601 5.796-2.053 10.438-1.688"/><path fill="#09421d" d="M427 305c3.429 2.591 4.783 4.217 5.938 8.375.069 4.032-.428 6.887-1.938 10.625-3.065 2.961-5.356 3.432-9.562 3.438l-2.879.058C416 327 416 327 414.223 325.16c-2.414-4.265-2.73-8.358-2.223-13.16 1.416-3.54 2.634-4.756 5.812-6.875 3.74-1.32 5.443-1.4 9.188-.125"/><path fill="#fdf8ec" d="M271 406c3.426 1.276 6.369 2.772 9.438 4.75 10.432 6.324 21.476 10.01 33.238 13.074L317 425l1 3c-16.835.67-38.936-3.64-52-15l1-3c2.062-.688 2.062-.688 4-1Z"/><path fill="#013914" d="M216 303h1l-.07 6.754-.055 8.808-.07 8.754C217 335 217 335 219 342c-3.435 2.29-4.985 2.178-9 2v2h-2l-.184-2.152-.254-2.786-.246-2.777C207 336 207 336 206 335a197 197 0 0 1 0-7h2l-.5-2.312c-.666-4.909-.579-9.742-.5-14.688l1.75.938C211 313 211 313 215 314Z"/><path fill="#abd07f" d="M295 202l2 1-.953 1.949C291.171 215.243 287.925 225.778 286 237l-1-2c-3 1-3 1-4.188 2.625-1.087 3.179-.94 6.042-.812 9.375l-4 2c.608-11.154 4.021-22.057 9-32 .125-3.25.125-3.25 0-6l1-2-6 1c3.031-2.442 6.09-4.13 9.625-5.75l2.914-1.359Z"/><path fill="#0a421d" d="M422 216l1.125 1.562c2.062 2.681 4.29 5.161 6.57 7.657 1.415 1.931 1.885 3.443 2.305 5.781l7 2v2h-5l-.812 2.375C432 240 432 240 429 242a484 484 0 0 1-4.312-2.75l-2.426-1.547c-2.313-1.741-3.814-3.198-5.262-5.703.812-3.25.812-3.25 2-6l5-1v-2h-2v-2l-4-1 3-1Z"/><path fill="#f0f1e9" d="M218 300h1c1.293 4.916 1.097 9.757 1.062 14.812l-.027 5.208L220 324h2l1-2 1 2 1-14h1l.184 4.531.254 5.969.246 5.906c.259 4.583.673 9.053 1.316 13.594l-4-1v13c-3.058-3.058-3.167-6.503-4.062-10.688l-1.036-4.761c-2.408-12.147-2.655-24.281-.902-36.551"/><path fill="#e4e5e5" d="M312.883 446.867c9.743 1.36 19.157 1.322 28.992 1.258l10.867-.055L361 448v3c-10.583 1.661-21.36 2.114-32.062 1.937-5.295-.06-9.833.678-14.938 2.063l-1.625-2.375c-2.677-2.959-4.56-3.67-8.375-4.625 3-2 3-2 8.883-1.133"/><path fill="#dfe1e0" d="M236 403h2c1.445 1.469 1.445 1.469 3.125 3.5C257.52 425.561 279.506 438.911 304 445l-1 2c-5.618.286-8.245.131-13-3l-4.133-1.312C274.059 438.593 263.368 431.195 254 423l-2.027-1.699c-5.586-4.745-11.215-9.724-15.973-15.301Z"/><path fill="#053c18" d="M423 245l5 2v5l4 1c-1.319 2.891-2.787 5.044-4.938 7.375-2.642 2.991-4.448 5.949-6.062 9.625h-2c-.1-3.492.222-6.594 1-10l-4-1c.174-5.042.39-7.888 4.062-11.5Z"/><path fill="#053d19" d="M333 336c3.823.517 5.373 1.259 8 4a70 70 0 0 0 4 1l3 2v4h-3l-.312 1.812c-.777 2.47-1.759 3.511-3.688 5.188-3.77-1.508-3.77-1.508-4.875-3.875-1.635-3.089-4.225-4.274-7.125-6.125l-1-2 1.938-1.312C332 339 332 339 333 336"/><path fill="#154825" d="M318 315c3.573 3.515 6.965 7.145 10.312 10.875 4.309 4.728 8.728 9.089 13.688 13.125l-2 2-1.812-1.938C336 337 336 337 333 336l-.312 1.812c-.782 2.488-1.814 3.435-3.688 5.188l1.75 1.207 2.25 1.605 2.25 1.583L337 349v3a814 814 0 0 1-5.887-4.418 154 154 0 0 0-5.113-3.644c-2-1.938-2-1.938-2.625-4.376.875-3.587 2.897-5.175 5.625-7.562l-1-3h-2l-1-3-5-1v-7l-3 1Z"/><path fill="#648470" d="M422.563 310.188C425 311 425 311 427 313c.624 2.625.624 2.625 1 5l2-4 2 9c-2.343 2.584-4.202 3.878-7.676 4.406-5.556.176-5.556.176-8.325-.406-1.836-2.031-1.836-2.031-3-4 2.882-.96 4.699-1.106 7.688-1.063l2.449.027c.308.007.308.007 1.863.036v-2l-7-1c-1.329-5.435-1.329-5.435.125-7.938C420 310 420 310 422.563 310.188"/><path fill="#003b16" d="M395 245c5.238 1.372 8.075 3.424 12 7l1.938 1.562C410 255 410 255 409.688 257.188L409 259l-2-1-1 4h-5l1-3-4 1-.375-1.938L397 256l-2-1v-3h-4c1.074-2.915 1.778-4.778 4-7"/><path fill="#abd485" d="M281 235h4l-1 26c-2-3-2-3-2-5h-2c-2.577 3.865-2.403 6.572-2.625 11.188l-.227 4.417L277 275h-1c-.081-4.271-.139-8.541-.188-12.812l-.105-7.208C276 249 276 249 279 246c.043-2 .04-4 0-6 1-2.875 1-2.875 2-5"/><path fill="#013915" d="M318 323h2v2h5l1 4h2v2l2 1a106 106 0 0 1-4 5h-2l1 3c-3 0-3 0-5.043-1.969l-2.145-2.531-2.167-2.531L314 331c1.125-2.972 2.223-5.334 4-8"/><path fill="#dbdfdc" d="M386 437l2 4c-2.183 2.183-4.107 3.153-6.875 4.5l-2.617 1.281L376 448l-1.961 1.148c-2.686 1.122-4.89 1.046-7.789.977l-2.984-.055L361 450v-2h-8v-1l3.156-.664c10.34-2.287 20.028-5.373 29.844-9.336"/><path fill="#fdfdfb" d="M225 293l2 1-.184 2.867A3519 3519 0 0 0 225 328l-1.375-2-1.625-2h-2l-1-25 2 3c2.503-2.938 3.469-5.179 4-9"/><path fill="#f0ba2c" d="M273 417c4.427 1.46 8.838 2.941 13.219 4.535 10.259 3.66 19.922 5.668 30.781 6.465-1.375 1.5-1.375 1.5-3 3h-2v2c-13.604-.833-26.566-6.904-38-14Z"/><path fill="#0d4720" d="M348 344c3.542 1.366 6.926 2.909 10.312 4.625l2.676 1.352L363 351c-3 1-3 1-5.25 1.188-4.086 1.207-6.692 3.93-9.75 6.812-6.875-3.625-6.875-3.625-8-7l1.938-.812C344 350 344 350 345 347h3Z"/><path fill="#fcfbf7" d="M259.75 225.688 262 226l-2.062 1.625L258 230l.641 2.835C259 236 259 236 257.27 238.563L254.812 241c-3.413 3.52-6.278 6.814-8.812 11l-2-1v-3l-2-1 2.438-2.25C247 242 247 242 247.5 239.937c.772-2.99 3.145-4.066 5.5-5.938v-3c3.073-4.893 3.073-4.893 6.75-5.311"/><path fill="#0d441d" d="M301 431l9 2-4.59 5.176C304 440 304 440 303 443c-5.113 1.298-8.051.581-12.875-1.438l-3.492-1.433L284 439v-2h5v2c2.625.5 2.625.5 6 0 2.368-2.432 4.195-5.133 6-8"/><path fill="#023b17" d="M372 357l6 1 1 4 4-1c0 3 0 3-1.812 5.062-3.557 3.151-5.477 4.193-10.188 3.938v-3l-4-1v-3q1.977-1.53 4-3Z"/><path fill="#023b16" d="M225 366c4.488 2.183 6.306 4.294 8 9-.312 2.875-.312 2.875-1 5-4.69 1.117-7.538.806-12-1 .845-4.93 2.218-8.827 5-13"/><path fill="#104723" d="M416 199c2.779 2.559 3.913 4.023 4.25 7.812L420 209l-3 1-1-4h-3l-.312 1.938L412 210c-3.133 1.044-3.99.934-7 0 .485-7.389.485-7.389 2.688-10 3.081-1.333 4.989-1.554 8.312-1"/><path fill="#fdfcf9" d="M255 397c5.096-.44 7.381.46 11.312 3.688l2.614 2.074c2.296 2.477 2.766 3.922 3.074 7.238l-7 2-1-2.062c-2.741-4.027-6.261-6.856-10-9.938Z"/><path fill="#184b29" d="M309 444c7.75.875 7.75.875 10 2 2.586-.118 5.169-.295 7.75-.5 20.497-1.335 20.497-1.335 26.25 2.5-6.404 1.142-12.692 1.168-19.188 1.188l-6.417.042c-6.3-.227-12.209-1.054-18.395-2.23Z"/><path fill="#fbf6e7" d="M271 406c6.654 2.403 6.654 2.403 9 5 .638 2.99.872 5.949 1 9-5.802-1.487-10.578-2.725-15-7l1-3c2.062-.688 2.062-.688 4-1Z"/><path fill="#003815" d="M252 215l5 1v8h-5v4h-2l1 4-5-2v-4l-4-1 1-3h6Z"/><path fill="#f9f8f3" d="M224 338l1 2 4 1 3 13h-3v-2h-2v10c-4.729-7.094-4.517-14.697-4-23Z"/><path fill="#567a62" d="M221 380h5l.438 2.312C227 385 227 385 228 388c2.062.688 2.062.688 4 1v2h2l1 5h-2l1.062 1.812C235 400 235 400 234 403a1183 1183 0 0 1-2.938-3.375l-1.652-1.898C228 396 228 396 227 394l-2-2.312c-2.073-2.786-2.567-4.31-3-7.688-.325-1.335-.655-2.67-1-4"/><path fill="#406a4e" d="M205 330h1v5l2 1-1 5 2 1-1 4h4l.375 3.438L213 353l2 1-3 6 6 2-2 2c-.125 3.625-.125 3.625 0 7l-3-1-.148-1.934-.227-2.504-.211-2.496L212 361l-2-1c-3.025-9.816-4.644-19.751-5-30"/><path fill="#6a8975" d="M390 247l-3 5h8v3l3 1 2 2 2 1c.75 1.875.75 1.875 1 4l-2 3-2.188-2.75c-4.309-5.131-8.682-7.775-14.812-10.25l-1-1a69 69 0 0 0-4.062-.562L375 251c3.228-2.152 4.284-2.201 8-2v-2c4.75-1.125 4.75-1.125 7 0"/><path fill="#dce0de" d="M446 251a54 54 0 0 1-6.938 3.938c-2.951 1.446-5.453 3.055-8.062 5.062h-2v2h-2c-1.81 5.292-3.411 10.639-5 16h-1c-1.179-4.988-1.425-7.965 1-12.562 5.153-8.235 13.396-17.619 24-14.438"/><path fill="#07411b" d="M243 393c3.867 2.122 6.744 4.527 9.812 7.688l2.395 2.449L257 405c-2.57 2.57-5.051 4.861-8 7-2.875-.188-2.875-.188-5-1 .35-3.242.562-4.615 3.062-6.812L249 403c-1.099-2.565-2.128-4.128-4.125-6.125L243 395Z"/><path fill="#fdfbf6" d="M280 412c4.288 1.344 8.277 2.962 12.312 4.938l3.176 1.527C298 420 298 420 299 423c-7.393-.752-7.393-.752-10.75-2.125-2.575-1.002-3.701-.819-6.25.125-1.858-3.135-2.201-5.375-2-9"/><path fill="#003d16" d="M207 311l1.859.961c2.051.995 3.92 1.563 6.141 2.039-.611 4.152-2.134 7.268-4 11l-.562 2.812L210 330l-2 1v-2l-2-1h2l-.5-2.312c-.666-4.909-.579-9.742-.5-14.688"/><path fill="#013615" d="M303 292h1l1 7h2c-.75 1.938-.75 1.938-2 4l-4 1c-1.25 2.062-1.25 2.062-2 4-1.894-2.652-3.018-4.252-2.938-7.562 1.132-2.943 2.51-4.451 4.938-6.438h2Z"/><path fill="#fbfaf5" d="M286 209c-.302 2.956-.53 4.469-2 7-3.46 2.711-7.153 4.884-11 7-.098-3.687.216-5.766 2-9v-2a981 981 0 0 1 4.375-1.5l2.461-.844C284 209 284 209 286 209"/><path fill="#dce1de" d="M314 198h3a86 86 0 0 1-3.297 6.199c-4.776 8.179-7.738 16.832-10.703 25.801-1.286-2.128-2.039-3.465-1.855-5.98 2.532-8.368 6.644-19.809 12.855-26.02"/><path fill="#265735" d="M421 304c3.868.086 5.71.781 8.812 3.125 2.609 3.428 3.109 5.597 3.188 9.875l-2 3-2-4-1 2-2-1c-.625-2.562-.625-2.562-1-5l-2.438-.375L420 311l-1-2 7-1-7-2Z"/><path fill="#013b15" d="M420 215l2 1-.562 1.812C421 220 421 220 422 223h2v2l-2.375.75c-2.948 1.404-3.527 2.257-4.625 5.25-1.5-1.125-1.5-1.125-3-3-.188-3.188-.188-3.188 0-6l-3-1c5.696-4.747 5.696-4.747 9-6"/><path fill="#0a401c" d="M277 420l4 3c-1.186 3.375-2.276 5.647-5 8l2 1.375 2 1.625v2c-4.827-1.413-8.716-3.43-13-6 2-2 2-2 4.438-3.312 2.884-1.9 4.001-3.649 5.562-6.688"/><path fill="#6aa824" d="M407.8 234.285l2.2.715-2 4h-3c-.187 3.375-.187 3.375 0 7l3 2-1 3a2377 2377 0 0 1-3.812-3.313l-2.145-1.863A101 101 0 0 1 396 241c1.38-1.206 2.78-2.389 4.188-3.563l2.355-2.004C405 234 405 234 407.8 234.285"/><path fill="#d3da9f" d="M295 202l2 1c-3.698 8.282-3.698 8.282-6.891 10.043-1.921.519-1.921.519-5.109.957l1-5-6 1c3.031-2.442 6.09-4.13 9.625-5.75l2.914-1.359Z"/><path fill="#62a423" d="M422 310a5.001 5.001 0 0 1 0 10 5.001 5.001 0 0 1 0-10"/><path fill="#eff2ef" d="M230 365h2l2 8h2v-2l5 1-1.562 1.75C238 376 238 376 238.188 378a62 62 0 0 0 2.812 6l-2 2q-2.227-3.62-4.438-7.25l-2.496-4.078C230 371 230 371 229 367Z"/><path fill="#0c401b" d="M417 398l1 2 6-2 .312 2.312C425 403 425 403 428 406l-6 7c-2-3-2-3-2-5h3v-2h-2v-2l-1.938-.812C417 402 417 402 416 399Z"/><path fill="#3e684a" d="M212 288l-1 7-3 1c-1.683 7.43-2.363 14.516-2.625 22.125l-.227 6.195L205 329h-1c-.308-13.69-.297-26.654 3-40 3.875-1 3.875-1 5-1"/><path fill="#f4bd25" d="M432 372l3 1-3 5-4-1-.375 2.875C427 383 427 383 425 385l-2-3a101 101 0 0 0-6-3c2.711-1.808 5.047-2.894 8.062-4.062 4.792-1.865 4.792-1.865 6.938-2.938"/><path fill="#c9d0cb" d="M236 403h2c1.445 1.469 1.445 1.469 3.125 3.5 5.716 6.701 11.53 12.603 18.875 17.5l-2 2c-8.095-5.752-15.465-12.525-22-20Z"/><path fill="#accf86" d="M430 374l-4.812 1.938-2.708 1.089c-3.4 1.334-6.031 2.095-9.668 2.035L409 379v-2l-7-1v-1l3.727-.184 4.898-.254 4.852-.246C420 374 420 374 423.336 373.402c2.624-.396 4.183-.261 6.664.598"/><path fill="#084119" d="M327 330l3 2a106 106 0 0 1-4 5h-2l1 3c-3 0-3 0-5.75-2.25-2.25-2.75-2.25-2.75-2.062-5.062L318 331l2.25 1.188L323 333c2.312-1.375 2.312-1.375 4-3"/><path fill="#e3e3e3" d="M299 245h1v15h-1Z"/><path fill="#ced4d1" d="M420 327l4 1Z"/><path fill="#d2d8d6" d="M300 265l1 4Z"/></svg>