<svg xmlns="http://www.w3.org/2000/svg" width="664" height="664"><path fill="#06421d" d="M472.336 349.996C480.774 356.343 486.82 363.862 492 373l1.176 1.945c8.174 14.582 8.817 32.291 5.324 48.305-5.331 18.53-16.395 32.905-32.891 42.875-17.26 8.967-35.463 11.016-54.281 5.871C392.822 465.874 379.37 454.006 370 437c-8.224-16.529-9.845-35.309-4-53 3.856-9.136 8.328-17.623 15-25l1.606-1.848c23.41-25.3 62.362-25.414 89.73-7.156"/><path fill="#013c17" d="M294.563 137.313c7.613 4.14 14.266 10.223 20.906 15.738l2.031 1.637 1.656 1.387c2.86 1.436 4.676 1.38 7.844.925 3.296-2.16 3.296-2.16 6.75-5.063 18.426-15.103 18.426-15.103 26.5-16.5 10.358 1.554 18.015 10.04 25.528 16.734 5.327 4.677 5.327 4.677 8.991 5.302 4.592-.673 6.546-2.901 9.918-6.036C421.056 136.832 421.056 136.832 430 137c6.4.638 10.727 3.23 15 8 7.957 12.998 5.26 33.177 5 48h1q.039 30.188.063 60.375l.034 33.96c-.096 26.665-.096 26.665-1.096 28.666.196 2.029.479 4.05.812 6.062l.52 3.284.667 2.654 2 1h-6v-4l-2.3-.183-3.012-.255-2.988-.245C437 324 437 324 434 323l-1-169-5-2c-2.743 1.43-2.743 1.43-6 4l-4.382 3.382-9.5 7.5c-5.704 4.32-9.303 5.728-16.274 5.535-5.002-.734-8.002-3.264-11.844-6.417l-4.082-3.257c-11.135-8.96-11.135-8.96-12.918-10.743-7.716 0-9.875 2.474-15.875 7.188-17.774 13.873-17.774 13.873-26.286 13.406-9.883-2.066-18.193-10.934-25.75-17.118-2.93-2.349-4.115-3.298-7.695-3.952-5.185.727-7.808 3.698-11.707 7.1-16.466 14.27-16.466 14.27-23.313 14a816 816 0 0 1-2.6-.023c-7.382-1.6-12.892-6.993-18.524-11.726-10.5-8.798-10.5-8.798-14.313-9.188L214 152c-5.298 7.948-2.31 137.229-2.313 153.5l-.05 84.469C212 456 212 456 215 459c5.507.007 8.22-2.48 12.188-6.063 17.558-15.426 17.558-15.426 26.656-15.195C263.192 438.86 270.26 447.16 277 453a199 199 0 0 0 4.5 3.687c.567.459 1.135.916 1.719 1.387 2.594 1.349 3.873 1.447 6.781.926 3.382-2.344 3.382-2.344 7.125-5.5 18.832-15.57 18.832-15.57 26.125-15.813.728-.036 1.454-.075 2.204-.113 9.709 1.623 18.28 11.126 25.71 16.969 4.837 3.457 4.837 3.457 9.837 4.457 1.913-1.031 1.913-1.031 3.624-2.5 1.726-1.469 1.726-1.469 3.375-2.5 3.41 1.137 4.376 2.259 6.688 4.938.31.355.31.355 1.887 2.151C378 463 378 463 378 465l1.692.79c6.198 3.25 11.942 7.74 17.308 12.21-4.308-.34-7.284-1.623-11-3.688-4.56-2.369-4.56-2.369-8.375-1.875-2.692 1.602-4.567 3.212-6.625 5.563l-2 2c-2.171-.207-2.171-.207-4.75-.813l-2.695-.605L359 478a424 424 0 0 0-6-1l-1-3-2-.125c-6.52-1.901-11.366-7.113-16-11.875-2.937-2.57-5.132-3.462-9-4l-.219 2.144c-1.582 5.786-6.332 10.03-10.78 13.856-3.102 1.24-5.656 1.575-9 2l-1 3-3 1-2 2-1-4-1.724.253c-6.48.856-11.748 1.226-17.59-2.19C276 474 276 474 274 472q-1.642-1.178-3.313-2.313c-3.238-2.278-5.92-4.846-8.687-7.687-2.45-2.019-3.957-2.986-7-4l1 5-1.941 1.101c-7.9 4.591-7.9 4.591-11.184 8.087-5.946 5.353-15.495 5.687-23.149 5.906-5.594-.306-9.52-1.174-13.726-5.094-26.841-34.543-8.23-129.943-8.25-166.188-.025-28.58-.052-57.16-.079-86.605.346-71.723.346-71.723 4.978-77.133 6.108-4.907 10.27-6.678 18.351-6.074 6.25 1.886 10.24 4.514 15.063 8.875 12.326 11.065 12.326 11.065 17.48 11.257 4.202-1.376 6.512-3.279 9.77-6.257 19.99-17.71 19.99-17.71 31.25-13.563"/><path fill="#144a28" d="M210 156h1l.113 65.52.199 84.292.176 84.27C212 456 212 456 215 459c5.507.008 8.22-2.479 12.188-6.062 17.557-15.427 17.557-15.427 26.656-15.196 9.347 1.118 16.415 9.419 23.156 15.258a204 204 0 0 0 4.5 3.688l1.719 1.386c2.594 1.349 3.872 1.447 6.781.926 3.383-2.344 3.383-2.344 7.125-5.5 18.832-15.57 18.832-15.57 26.125-15.812l2.203-.114c9.71 1.623 18.281 11.127 25.711 16.969C356 458 356 458 361 459c1.914-1.031 1.914-1.031 3.625-2.5 1.727-1.469 1.727-1.469 3.375-2.5 3.41 1.137 4.376 2.258 6.688 4.938l1.886 2.152C378 463 378 463 378 465l1.691.789c6.2 3.252 11.944 7.74 17.309 12.211-4.308-.34-7.285-1.622-11-3.688-4.561-2.369-4.561-2.369-8.375-1.874-2.691 1.602-4.567 3.211-6.625 5.562l-2 2c-2.172-.207-2.172-.207-4.75-.812l-2.695-.606L359 478a419 419 0 0 0-6-1l-1-3-2-.125c-6.519-1.901-11.366-7.112-16-11.875-2.936-2.569-5.132-3.463-9-4l-.219 2.145C323.198 465.931 318.45 470.174 314 474c-3.101 1.24-5.656 1.575-9 2l-1 3-3 1-2 2-1-4-1.723.254c-6.481.855-11.749 1.225-17.589-2.192C276 474 276 474 274 472a161 161 0 0 0-3.312-2.312c-3.24-2.279-5.922-4.847-8.688-7.688-2.451-2.018-3.957-2.986-7-4l1 5-1.941 1.102c-7.899 4.591-7.899 4.591-11.184 8.086-5.946 5.354-15.495 5.687-23.148 5.906-5.595-.307-9.521-1.174-13.727-5.094-4.241-5.141-7.243-9.258-8-16l4-1 1 6 1.812-2.438C207 457 207 457 210 456Z"/><path fill="#043f1a" d="M440.098 140.262c5.435 4.397 7.53 8.876 8.902 15.738.738 12.314 1.217 24.663 1 37h1q.04 30.187.063 60.375c.01 11.207.023 22.415.035 33.96C451 314 451 314 450 316c.197 2.03.48 4.05.813 6.063.17 1.084.343 2.168.519 3.285L452 328l2 1h-6v-4l-2.3-.183-3.012-.254-2.988-.246C437 324 437 324 434 323l-1-169-5-2c-2.757 1.453-2.757 1.453-6 4l-4.304 3.235-4.571 3.515-4.617 3.547L405 169l-2-1 3-14-3-1c24.012-20.61 24.012-20.61 37.098-12.738"/><path fill="#09421f" d="M294.563 137.313c7.613 4.14 14.266 10.223 20.906 15.738l2.031 1.637 1.656 1.387c2.86 1.436 4.676 1.38 7.844.925 3.296-2.16 3.296-2.16 6.75-5.063 18.426-15.103 18.426-15.103 26.5-16.5 10.358 1.554 18.015 10.04 25.528 16.734 5.401 4.742 5.401 4.742 9.16 5.142 3.425-.35 4.445-1.22 7.063-3.313h4q-.348 3.27-.727 6.54a201 201 0 0 0-.586 6.398C404 170 404 170 402.282 171.16c-4.936 1.816-10.54 1.966-15.438-.048-2.433-1.558-4.608-3.279-6.844-5.113l-4.082-3.257c-11.135-8.96-11.135-8.96-12.918-10.743-7.716 0-9.875 2.474-15.875 7.188-17.774 13.873-17.774 13.873-26.286 13.406-9.883-2.066-18.193-10.934-25.75-17.118-2.93-2.349-4.115-3.298-7.695-3.952-5.185.727-7.808 3.698-11.707 7.1-16.466 14.27-16.466 14.27-23.313 14a816 816 0 0 1-2.6-.023c-7.382-1.6-12.892-6.993-18.524-11.726-10.498-8.797-10.498-8.797-14.25-9.188-3 .313-3 .313-4.875 1.813L211 155v-3l-2-1h3l1-4c7.875.875 7.875.875 9 2 1.421-3.317 2.39-6.442 3-10 4.689 1.49 7.704 4.09 11.375 7.313l3.469 2.973q2.662 2.286 5.313 4.585c2.863 2.298 4.427 3.137 8.143 3.058 4.51-1.132 6.594-2.93 10.012-6.054 19.991-17.71 19.991-17.71 31.25-13.563"/><path fill="#fafbfb" d="M469 376c3.062 2 3.062 2 5 5 .75 3.812.75 3.812 0 8-8.84 10.103-18.317 19.448-27.812 28.938l-11.27 11.277c-9.742 9.597-9.742 9.597-14.043 10.285-8.383-1.082-14.973-10.436-20.75-16.188l-4.492-4.449c-3.607-3.835-5.406-6.081-6.071-11.301.438-3.562.438-3.562 2.376-6.5 3.474-2.34 5.451-3.033 9.593-2.812 5.233 1.59 8.771 5.902 12.469 9.75q1.812 1.782 3.625 3.562L420 414c12.117-6.059 22.071-20.523 31.387-30.195C460 376 460 376 469 376"/><path fill="#fdb704" d="M280.281 212.504l42.22.059 42.218.003C398 213 398 213 402 216c.437 3.5.437 3.5 0 7-8.677 8.677-24.386 3.253-36.657 3.399l-42.843-.024-42.844.024c-33.656-.4-33.656-.4-36.656-3.4-.438-2.936-.438-2.936 0-6 4-4 4-4 37.281-4.495"/><path fill="#5ba01c" d="M329.875 266.75l25.742-.078C376 267 376 267 379 270c.437 2.938.437 2.938 0 6-4 4-4 4-24.191 4.496l-25.372-.058-25.378-.004C284 280 284 280 281 277c-.875-1.875-.875-1.875-1-4 7.134-13.944 37.992-6.228 49.875-6.25"/><path fill="#e4e4e4" d="M251.992 451.379c4.116.85 6.041 2.734 9.133 5.559 18.653 16.554 18.653 16.554 28.238 16.39 4.441-.552 7.16-2.631 10.637-5.328l3.105-2.348c4.148-3.164 8.283-6.342 12.332-9.632l2.063-1.645 1.72-1.414C321 452 321 452 326 452c3.855 2.598 3.855 2.598 8.187 6.063l4.586 3.578a412 412 0 0 1 7.141 5.781c5.424 4.276 9.444 5.452 16.387 5.008 6.53-1.04 11.126-4.857 15.7-9.43v2l1.69.789c6.2 3.252 11.944 7.74 17.31 12.21-4.309-.34-7.286-1.621-11-3.686-4.562-2.37-4.562-2.37-8.376-1.875-2.692 1.602-4.568 3.21-6.625 5.562l-2 2c-2.172-.207-2.172-.207-4.75-.812l-2.696-.606L359 478a434 434 0 0 0-6-1l-1-3-2-.125c-6.519-1.901-11.366-7.112-16-11.875-2.936-2.57-5.132-3.463-9-4l-.219 2.145c-1.583 5.786-6.33 10.029-10.78 13.855-3.102 1.24-5.657 1.575-9 2l-1 3-3 1-2 2-1-4-1.724.254c-6.48.855-11.749 1.225-17.59-2.191C276 474 276 474 274 472a161 161 0 0 0-3.313-2.312c-3.239-2.28-5.92-4.847-8.687-7.688-2.45-2.018-3.957-2.986-7-4l1 5-1.942 1.102c-7.898 4.59-7.898 4.59-11.183 8.086-5.946 5.354-15.496 5.687-23.149 5.906-5.685-.312-9.408-1.344-13.726-5.094l-1-2c4.75.875 4.75.875 7 2 1.883.238 1.883.238 4.125.313l2.195.113c7.178-1.141 12.523-5.68 17.805-10.363l3.508-3.09a267 267 0 0 0 6.421-5.852C249 452 249 452 251.992 451.379"/><path fill="#0f4723" d="M323.25 437.688l2.203-.113c9.71 1.623 18.281 11.125 25.711 16.968C356 458 356 458 361 459c1.914-1.031 1.914-1.031 3.625-2.5 1.727-1.469 1.727-1.469 3.375-2.5 3.19 1.063 4.084 1.858 6.25 4.313l1.641 1.8C377 462 377 462 376.914 464.032c-1.17 2.522-2.534 3.55-4.789 5.156l-2.117 1.543c-5.168 3.267-11.132 3.213-17.008 2.27-4.128-2.106-7.462-5.03-11-8a811 811 0 0 0-8.375-6.5l-4.023-3.156C326 453 326 453 323.48 452.313c-3.992 1.106-6.62 3.577-9.792 6.187-1.255 1.02-2.509 2.041-3.801 3.094L307 464l-2-4h3v-2l2-1 3-2h2l-1.5-2.875C312 449 312 449 312 447h-4l-.25 1.875C307 451 307 451 305.188 452.314 303 453 303 453 299 452q4.151-3.225 8.312-6.438c.772-.596.772-.596 4.676-3.62 4.048-2.969 6.402-4.094 11.262-4.255"/><path fill="#63a629" d="M318.875 320.75l18.93-.078C353 321 353 321 357 324c.437 3.5.437 3.5 0 7-3 3-3 3-18.5 3.398l-19.5-.023-19.5.023C284 334 284 334 281 331c-.875-1.875-.875-1.875-1-4 6.05-12.388 27.993-6.223 38.875-6.25"/><path fill="#336043" d="M210 156h1l.113 65.52.199 84.292.176 84.27C212 456 212 456 215 459c5.743.073 8.729-2.881 12.875-6.562l3.492-3.067L234 447l2 1-1 1 2 1v5l4 2v3c-2.598 2.594-2.598 2.594-6.062 5.5l-3.411 2.906c-5.444 4.004-10.439 6.277-17.191 6-5.26-.914-9.52-3.349-13.047-7.344-2.202-3.212-3.348-5.114-3.101-9.062l.812-2h3l1 6 1.812-2.438C207 457 207 457 210 456Z"/><path fill="#5a9f1e" d="M311.813 374.625l14.957-.148C339 375 339 375 344 380c0 3.187 0 3.187-1 6-7.236 4.824-22.933 2.306-31 2.313l-15.563.05C284 388 284 388 281 385c-.875-1.875-.875-1.875-1-4 5.442-11.144 21.457-6.305 31.813-6.375"/><path fill="#0a4320" d="M440.168 140.332c3.275 2.667 5.085 4.41 5.832 8.668l-7 1c-10.337 26.878-3.409 67.044-3.562 94.562l-.254 44.192L435 323h-1l-1-169-5-2c-2.758 1.453-2.758 1.453-6 4l-4.305 3.234-4.57 3.516-4.617 3.547L405 169l-2-1 3-14-3-1c24.108-20.692 24.108-20.692 37.168-12.668"/><path fill="#063b1a" d="M202 144l2 3-1.438 1.25c-8.473 9.49-2.626 153.533-2.624 157l.027 84.828L200 456l-2 1c-.08-50.687-.139-101.375-.188-152.062l-.105-85.536c.31-71.419.31-71.419 4.293-75.402"/><path fill="#dedfdf" d="M326 452c3.855 2.598 3.855 2.598 8.188 6.062l4.585 3.579a412 412 0 0 1 7.141 5.781c5.424 4.275 9.444 5.452 16.387 5.008 6.53-1.04 11.126-4.857 15.699-9.43v2l1.691.789c6.2 3.252 11.944 7.74 17.309 12.211-4.308-.34-7.285-1.622-11-3.688-4.561-2.369-4.561-2.369-8.375-1.874-2.691 1.602-4.567 3.211-6.625 5.562l-2 2c-2.172-.207-2.172-.207-4.75-.812l-2.695-.606L359 478a419 419 0 0 0-6-1l-1-3-2-.125c-6.519-1.901-11.366-7.112-16-11.875-2.936-2.569-5.132-3.463-9-4l-.062 2.125c-1.388 4.254-4.454 6.228-7.938 8.875l-2-1-1 1v2l-6 2 1-2h-7l1 4-4 1 2-1-1-2c-2.062-.625-2.062-.625-4-1 4.319-4.493 8.982-8.093 13.992-11.773a174 174 0 0 0 5.391-4.141l2.055-1.648 1.746-1.442C321 452 321 452 326 452"/><path fill="#0d4522" d="M373 142c3.689 2.696 7.316 5.406 10.77 8.402l2.855 2.473 2.664 2.367c3.216 2.085 4.948 2.231 8.711 1.758a83 83 0 0 0 4-3h4q-.346 3.271-.727 6.539a204 204 0 0 0-.585 6.399C404 170 404 170 402.281 171.16c-4.936 1.817-10.539 1.968-15.437-.047-3.835-2.456-7.218-5.425-10.715-8.336l-4.254-3.527-4.008-3.422c-3.722-2.722-6.393-3.921-10.867-4.828v-1c6.75-.125 6.75-.125 9 1l-1-5 4-2 3 3h-2l-1 7 8-4v-2l-2-2-2-2Z"/><path fill="#e4e3e3" d="M510 393h1c1.947 15.657 2.755 30.47-4 45l-.906 2.391c-4.581 11.791-13.019 20.984-22.176 29.441-3.202 3.476-4.849 6.947-6.918 11.168-1.945 2.031-1.945 2.031-4 3-2.367-.031-2.367-.031-4.875-.5-4.648-.651-7.069-.035-11.125 2.5h-2v2a2544 2544 0 0 1-17.688-.25l-9.949-.141C416.63 486.911 408.56 484.78 399 480c3.166-1.583 5.505-.129 8.812.875 21.749 6.554 42.736 3.678 62.61-6.785 4.563-2.665 8.593-5.639 12.578-9.09l2.469-1.875c14.584-12.243 22.627-33.285 24.281-51.813.326-6.101.349-12.203.25-18.312"/><path fill="#fcc534" d="M247 213c25.143-.376 50.291-.472 75.438-.438l42.246.004C398 213 398 213 402 216c.25 3.687.25 3.687 0 7l-2-4c-28.832-3.604-57.981-2.178-87-2.125l-38.938.055L244 217Z"/><path fill="#07411e" d="M364 136c5.71 2.467 8.753 5.708 12 11l3 1c-3.424 3.827-6.007 5.723-11 7-.262-3.146-.248-4.618 1.5-7.312L371 146l-4-1v4l-1 3-9-2v2c-1.391 1.324-1.391 1.324-3.25 2.688l-1.828 1.386c-1.922.926-1.922.926-3.992.637a154 154 0 0 1-4.555-1.773C341 154 341 154 339 154l1 5-2 1-1 3h-3l.562-3.25c.382-3.269.336-4.743-.562-7.75 19.85-16.982 19.85-16.982 30-16"/><path fill="#06411d" d="M308 447h4c3 5.75 3 5.75 3 8l-1.938.875C311 457 311 457 310 459l-2-1v2l-2 1-.355 1.836c-.894 3-2.471 3.942-4.957 5.789l-2.364 1.789c-5.408 3.691-9.799 4.589-16.324 3.586-2.934-1.354-5.459-3.012-8-5l1-2-1-3 6-2v2l5-1v-3l2.562-.688c2.928-1.117 4.389-1.941 6.75-3.812 3.908-2.97 7.904-3.773 12.688-4.5Z"/><path fill="#0a4320" d="M225 139c4.688 1.49 7.704 4.091 11.375 7.312 11.653 10.06 11.653 10.06 17.625 12.688l-3 1v2l-3 2c-1.188 3.625-1.188 3.625-2 7-4.659-1.487-7.66-4.048-11.312-7.25l-3.461-2.973L228 158c-6.796-5.796-6.796-5.796-11.312-6.562-2.903.607-3.93 1.218-5.688 3.562v-3l-2-1h3l1-4c7.875.875 7.875.875 9 2 1.422-3.317 2.39-6.442 3-10"/><path fill="#69aa34" d="M329.875 266.75l25.742-.078C376 267 376 267 379 270c.437 2.938.437 2.938 0 6-4 4-4 4-24.191 4.496l-25.372-.058-25.378-.004C284 280 284 280 281 277c-.875-1.875-.875-1.875-1-4 7.134-13.944 37.992-6.228 49.875-6.25M282 271v3h5l-1 3h89v-9c-14.937-.08-29.875-.139-44.813-.188l-25.207-.105C285 268 285 268 282 271"/><path fill="#e0e2e1" d="M448 156h1c1.191 26.106 1.191 26.106 1 37h1q.04 30.188.062 60.375l.036 33.961C451 314 451 314 450 316c.196 2.029.479 4.051.812 6.062l.52 3.286L452 328l2 1h-6v-4l-2-1h2Z"/><path fill="#154b29" d="M330.004 438.754c3.5 1.928 6.343 4.275 8.996 7.246l-8-1-4 6 5-1 1 3-2 1-1 2-1.687-1.5c-2.902-1.882-3.891-2.032-7.313-1.5-3.551 2.406-3.551 2.406-7.312 5.5-1.255 1.02-2.51 2.042-3.801 3.094L307 464l-2-4h3v-2l2-1 3-2h2l-1.5-2.875C312 449 312 449 312 447h-4l-.25 1.875C307 451 307 451 305.188 452.313 303 453 303 453 299 452q4.151-3.225 8.313-6.437c.77-.598.77-.598 4.675-3.621 5.494-4.028 11.398-5.678 18.016-3.188"/><path fill="#879f8c" d="M432 138c5.178.253 7.798 2.082 11.582 5.332 1.596 1.878 2.016 3.262 2.418 5.668l-7 1c-10.338 26.878-3.409 67.044-3.562 94.562l-.254 44.192L435 323h-1l-1-169-5-2-2-1v-5l2.875-.812C432 144 432 144 434 141l3 2-2-4-3 1Z"/><path fill="#08401e" d="M255 439l1 3 2.938-.062C262 442 262 442 263 443c.263 4.032.294 5.559-2 9h-2v3l-1.625-1c-3.113-1.311-5.016-1.47-8.375-1-2.27 1.481-4.022 3.116-6 5l-6-3v-5l-3-1c6.774-8.468 6.774-8.468 11.875-9.688 3.068-.306 6.044-.385 9.125-.312"/><path fill="#6baa33" d="M257 319c3.157 2.671 4.281 4.958 4.625 9-.191 3.595-.685 4.069-3.25 7-3.676 2.178-5.207 2.798-9.375 2-2.7-1.8-4.542-3.084-6-6-.375-3.312-.375-3.312 0-7 4.529-5.483 7.046-6.679 14-5"/><path fill="#67a72f" d="M255 264c2.7 1.8 4.542 3.084 6 6 .376 3.986.366 6.326-1.562 9.875-3.202 2.791-5.219 3.125-9.438 3.125-3.574-1.588-4.811-2.716-7-6-.468-4.212-.466-6.286 1.875-9.875C248.2 263.8 250.346 263.544 255 264"/><path fill="#69a832" d="M258 374c2.968 2.489 3.005 4.037 3.5 7.938-.143 3.332-.559 4.148-2.562 7.062-3.701 2.519-5.541 2.707-9.938 2-2.753-1.796-4.526-3.053-6-6-.375-3.312-.375-3.312 0-7 4.78-5.943 7.929-6.652 15-4"/><path fill="#0b4621" d="M291 459l1 9 5 2c-3.14 3.282-5.073 4.192-9.625 4.375-5.604-.016-9.04-1.985-13.375-5.375l1-2-1-3 6-2v2l5-1v-3c4.875-1 4.875-1 6-1"/><path fill="#e3e3e3" d="M510 393h1c1.947 15.657 2.755 30.47-4 45l-.906 2.391c-3.3 8.494-9.117 17.704-16.094 23.609h-3c1.028-3.392 2.234-5.262 4.625-7.938C507.027 438.627 510.795 415.524 510 393"/><path fill="#e5e5e5" d="M319 466c0 3 0 3-1.938 5.562-3.485 2.774-5.854 3.297-10.171 3.883L305 476l-1 3-3 1-2 2-1-4-1.723.254c-6.532.861-11.751 1.124-17.715-2.129L276 474v-3l2.375 1c6.195 1.709 12.385 1.468 18.625 0h4l1 3v-4l8-1v2l2-1-1-2h3v-2l3 1Z"/><path fill="#1d5330" d="M373 142c6.526 4.768 12.774 9.849 19 15l-2 2-1.672-.992c-2.716-1.176-4.634-1.21-7.578-1.133l-2.703.055L376 157l-1 4q-2.16-1.4-4.312-2.812l-2.426-1.583C366 155 366 155 364.406 153.344c-2.161-2.066-4.519-2.023-7.406-2.344v-1c6.75-.125 6.75-.125 9 1l-1-5 4-2 3 3h-2l-1 7 8-4v-2l-2-2-2-2Z"/><path fill="#0d4622" d="M339 152l10 5c-4.41 4.851-9.58 8.348-15 12l-3-2v-4h-2l-2-3c-2.164-.293-2.164-.293-4.625-.188l-2.477.083L318 160v-4l1.793.359c6.557 1.07 6.557 1.07 10.145-1.297L332 153h2v2l2 1-2 7h3c.687-2.491 1-4.379 1-7Z"/><path fill="#0a3c19" d="M435 165h1l.113 33.363.199 42.949.176 42.926C437 318 437 318 440 321v2h-5Z"/><path fill="#fcc02e" d="M243 217c2.328 2.834 3.074 4.295 4 8h152v1c-25.437.08-50.875.139-76.312.188l-42.926.105C246 226 246 226 243 223c-.188-3.188-.188-3.188 0-6"/><path fill="#77b245" d="M329.875 266.75l25.742-.078C376 267 376 267 379 270c.425 4.078.313 5.531-2 9h-2a493 493 0 0 1-.563-4.375l-.316-2.461C374 270 374 270 375 268q-21.625.21-43.25.438l-24.328.246C288 269 288 269 284 270l-2 7c-1.187-1.688-1.187-1.688-2-4 6.838-14.001 38.295-6.229 49.875-6.25"/><path fill="#1d512f" d="M225 139c4.579 1.487 7.663 3.965 11.312 7.062l3.239 2.723L242 151v1h-6l-3-6-3 1-1 3-2 1c-1.125 2.062-1.125 2.062-2 4l-2.125-1.5c-3.314-1.729-5.188-1.981-8.875-1.5-1.875 1.5-1.875 1.5-3 3v-3l-2-1h3l1-4c7.875.875 7.875.875 9 2 1.422-3.317 2.39-6.442 3-10"/><path fill="#dbdddc" d="M255 452c3.113 2.16 3.113 2.16 6.312 5.062l3.407 3.024L268 463a383 383 0 0 0 9 7l-2 2c-3.854-1.57-6.084-4.084-9-7-6.911-5.637-6.911-5.637-11-7l-1 4v-5l-2 2-2.062.5-1.938.5-1 2v-2l-3 1-2-3a140 140 0 0 1 3.125-3l1.758-1.688c2.991-1.854 4.647-1.867 8.117-1.312"/><path fill="#1a4f2d" d="M210 455l5 5c-3.133 1.044-3.99.934-7 0l.562 2.938L209 466l-1 1 6 3-1 3h8v1c-7.285.578-12.211-.351-18-5-2.191-2.481-3.83-4.896-5-8 .188-3 .188-3 1-5h3l1 6 1.812-2.375C207 457 207 457 210 455"/><path fill="#02401a" d="M331 444c3.09.434 6.05.968 9 2 1.812 2.438 1.812 2.438 3 5 1.951 1.656 3.717 2.859 6 4-2.491.687-4.379 1-7 1l-3 2c-2.688-.375-2.688-.375-5-1v-2h-2v-5h-4l-1 2c0-3.908 1.506-5.116 4-8"/><path fill="#7fb650" d="M312.125 374.938l15.133.026c1.937.007 1.937.007 11.742.036l-2 2v3h-7v-1q-10.938-.038-21.875-.063l-12.305-.035C286 379 286 379 284 380l-2-1 .625 1.875L283 383l-2 2c-.687-1.688-.687-1.688-1-4 5.482-11.224 21.743-6.087 32.125-6.063"/><path fill="#1e5130" d="M302 143c5.71 3.651 10.945 7.482 16 12-3.75 1.125-3.75 1.125-6 0l-6 5 3 1v4c-3.039-1.41-5.594-3.089-8.25-5.125l-2.141-1.633L297 157c3.75-3 3.75-3 6-3v-2l3-2-2-2.375C302 145 302 145 302 143"/><path fill="#e4e5e4" d="M236 469v2h-3v2l7-1 1 2q-3.219.717-6.441 1.418c-1.6.364-3.193.758-4.774 1.195-6.464 1.719-13.524 2.297-19.781-.508-2.262-1.448-3.793-2.684-5.004-5.105 4.75.875 4.75.875 7 2 5.921.749 10.049-.139 15.211-3.039 3.07-1.649 5.616-2.548 8.789-.961"/><path fill="#1c502f" d="M267 157c2.468 1.152 4.048 2.048 6 4q-3.185 2.471-6.375 4.938l-3.586 2.777c-4.043 3.04-5.683 3.405-10.664 3.347l-3.039-.027L247 172v-1h10v-3l-4-1c.34-3.175 1.025-4.023 3.438-6.25C259 159 259 159 261 159l-1 5c5.875-3.625 5.875-3.625 7-7"/><path fill="#033e1a" d="M254 441c3.024.588 6.018 1.227 9 2 .25 5.625.25 5.625-2 9h-2v3a1719 1719 0 0 1-4.375-1.438l-2.461-.808C250 452 250 452 248 451c.312-1.875.312-1.875 1-4l3-2c1.188-2.125 1.188-2.125 2-4"/><path fill="#194b2b" d="M291 136l3 2-8 2-2 10h6v1l-3.062.688c-4.368 1.221-7.378 3.551-10.938 6.312-1-3-1-3-.062-5.188L277 151l3 1-.508-1.793c-1.657-6.43-1.657-6.43-.867-10.145 3.114-4.67 7.064-4.448 12.375-4.062"/><path fill="#013c19" d="M321 159h6l2 4h2l2 5c-3.875 1-3.875 1-5 1v2h-9v-2l-3-2 4-2v-2h2Z"/><path fill="#e1e1e1" d="M486 463l3 2-1.68 1.574-2.195 2.114-2.18 2.074c-2.031 2.338-2.826 4.387-3.945 7.238-2.375.625-2.375.625-5 1-2.312 1.562-2.312 1.562-4 3l-4-2 4-4 1.855-1.914c2.137-2.079 4.345-3.896 6.707-5.711l2.317-1.789A116 116 0 0 1 486 463"/><path fill="#023d1a" d="M342.875 147.188 345 148v3h4v6c-6.75-1.75-6.75-1.75-9-4-1 3-1 3 0 6l-2 1-1 3h-3l.563-3.25c.367-3.154.482-4.849-.563-7.75 5.292-5.047 5.292-5.047 8.875-4.813"/><path fill="#62a329" d="M260 376c1.106 2.213 1.196 3.547 1.25 6l.078 2.125L261 386c-3.246 2.164-4.243 2.376-8 2l-3-2c.396-1.651.817-3.296 1.25-4.938l.703-2.777C253 376 253 376 254.922 375.121 257 375 257 375 260 376"/><path fill="#06401b" d="M213 137c8.571-.143 8.571-.143 12 1 .369 7.385.369 7.385-1.5 10.5L222 150l-7-2 .07-1.898.055-2.477.07-2.461C215 139 215 139 213 137"/><path fill="#1a512e" d="M242 153c3.395.606 5.307 1.896 8 4a88 88 0 0 0 4 2l-3 1v2l-3 2c-1.188 3.625-1.188 3.625-2 7-3.653-1.25-4.781-1.671-7-5l6-9-3-2Z"/><path fill="#d9dad9" d="M326 452c3.77 2.406 3.77 2.406 7.812 5.5l4.083 3.094L341 463l-3 2-1.574-1.277c-6.927-5.442-6.927-5.442-11.426-5.723l-1 3v-4l-1 1-2 2-3-2-2 1-2-2a164 164 0 0 1 3.188-2.5l1.792-1.406c2.738-1.483 3.924-1.657 7.02-1.094"/><path fill="#e4eae6" d="M392 413c3.067 1.362 5.118 2.897 7.438 5.312l1.832 1.887L403 422l2.625 2.625a582 582 0 0 1 4.937 5C413 432 413 432 415.312 433.688L417 435v2h8l-1 2c-3 .438-3 .438-7 0-6.04-4.876-11.503-10.339-17-15.812l-4.562-4.52C392 415 392 415 392 413"/><path fill="#e7e6e6" d="M510 393h1c1.795 14.288 3.31 29.648-3 43h-2c-1.322-3.966-.326-5.892.875-9.875 3.066-11.026 3.31-21.743 3.125-33.125"/><path fill="#66a82b" d="M283 322c3.19.091 6.377.248 9.562.438l5.317.308L302 323v1l-14 1 1 5 3 1v1l-9 1c-1.625-2.188-1.625-2.188-3-5 .663-2.43 1.201-4.201 3-6"/><path fill="#dfe0df" d="M241 462v4l4 1c-2.862 4.183-5.011 5.916-10 7l-2-1v-2h3l-1-2-4 1v-3c5.116-5 5.116-5 10-5"/><path fill="#013b17" d="M298 142c1.75.125 1.75.125 4 1 4 5.111 4 5.111 4 9h-3v2l-6 2c-1.517-9.41-1.517-9.41 1-14"/><path fill="#1c5230" d="M339 152l10 5c-4.14 4.541-8.824 7.718-14 11v-4h2c.597-2.763 1-5.16 1-8Z"/><path fill="#68a82f" d="M250 320l-1 6 2 1.375 2 1.625v2h-3l-1 3-6-3c-.363-6.292-.363-6.292 1.25-9.438C246 320 246 320 250 320"/><path fill="#023d19" d="M294 139h-2v12l-8-1v-2l-2-1 2-1a129 129 0 0 0 2-7c3.287-.8 4.71-1.097 8 0"/><path fill="#1b532f" d="M432 138c4.752.432 6.92 1.328 10 5l-1.812.438c-5.026 1.292-5.026 1.292-6.313 3.437-.693 1.682-1.3 3.399-1.875 5.125h-6l.562-1.875C427 148 427 148 426 146l2.875-.812C432 144 432 144 434 141l3 2-2-4-3 1Z"/><path fill="#093d1c" d="M202 144l2 3-3 3c-1.454 9.106-1.317 18.424-1.562 27.625l-.254 9.289L199 194h-1c-.081-6.854-.139-13.708-.188-20.562l-.105-11.567c.415-13.993.415-13.993 4.293-17.871"/><path fill="#f2f5f3" d="M442 394l1 3-2.312 1.688C438 401 438 401 436.625 403.312c-3.008 4.975-6.671 8.871-12.063 11.126L422 415c4.237-5.065 8.684-9.791 13.375-14.438l3.773-3.746Z"/><path fill="#e9e9e7" d="M509 388l1 4Z"/><path fill="#e3e3e3" d="M397 478l2 1Z"/><path fill="#e5e5e5" d="M454 329l2 1Z"/></svg>