<svg xmlns="http://www.w3.org/2000/svg" width="664" height="664"><path fill="#fbfbfb" d="M347.8 117.738c5.53 3.172 10.447 6.333 14.888 10.95 4.768 4.897 8.443 6.47 15.312 6.562 3.044-.048 5.886-.23 8.887-.75 11.443-1.838 22.59-1.544 32.238 5.187 9.264 7.515 14.268 16.145 17.375 27.625 1.513 5.273 3.457 8.677 8.18 11.797 3.938 2.124 7.983 3.414 12.258 4.703 10.213 3.31 17.29 10.08 22.28 19.485 4.195 8.928 4.955 18.097 2.72 27.703-1.39 6.36-1.371 12.192 1.625 18.062 1.385 1.67 2.8 3.316 4.304 4.88 7.91 8.343 11.377 16.018 11.696 27.62-.225 7.18-1.382 13.01-4.563 19.438l-.945 1.976c-2.66 5.072-6.411 9.671-10.688 13.477-2.616 2.96-2.39 6.741-2.367 10.547.402 2.8.947 5.547 1.504 8.32 1.747 9.435-.128 18.637-4.824 27.043-7.734 10.883-18.181 16.29-30.805 19.863-2.192.905-3.305 2.016-4.875 3.774l-2 2c-2.427 2.932-3.902 5.756-5.25 9.312l-1.078 2.738c-2.943 12.92 7.589 30.847 11.703 42.387l6.336 17.81c2.724 7.598 5.455 15.194 8.289 22.753.385 5.074.3 9.397-2 14-4.302 2.868-9.002 2.355-14 2a413 413 0 0 1-17.062-5.5c-2.982-1.02-5.963-2.042-9.035-3.094L411 488l-4.312 6.25c-2.513 3.618-5.045 7.225-7.688 10.75-.687 2.25-.687 2.25-1 4h-2l-2.187 3.312c-2.683 3.89-5.191 5.391-9.813 6.688-5.481 0-8.14-2.27-12-6-1.836-3.582-1.836-3.582-3.375-7.813l-1.777-4.847c-2.668-7.71-5.245-15.447-7.793-23.196-3.96-11.842-8.013-23.712-13.055-35.144l-3.187 1c-8.942 2.22-18.015 1.386-26.813-1l-1 6c-4.823 14.063-9.936 28.022-15 42l-2.82 7.968-2.305 6.407-1.945 5.461c-1.904 4.11-3.086 5.886-6.93 8.164-4.391 1.325-6.495 1.187-10.816-.418-5.237-3.232-7.5-6.73-10.81-11.895C255.98 492.71 255.98 492.71 252 489c-8.73-.634-18.718 5.116-26.777 8.066-5.29 1.644-8.795 2.564-14.223 1.934-5.5-3-5.5-3-7-6-.461-7.64.77-13.436 3.313-20.625l1.863-5.352c1.58-4.352 3.196-8.689 4.824-13.023q1.417-3.966 2.813-7.938l1.574-4.472L220 437q1.561-4.438 3.125-8.875l1.488-4.227c1.5-4.216 3.045-8.414 4.626-12.6 1.793-5.409 1.8-8.262-.301-13.673l-1.223-3.274c-4.218-8.243-8.891-11.322-17.527-14.35-12.953-4.9-21.443-10.858-27.563-23.439-2.703-7.166-2.13-15.03-1.625-22.562l1-2c.703-7.084.958-13.23-3.371-19.114-1.855-2.148-3.768-4.236-5.691-6.324-7.204-7.87-9.237-16.255-9.082-26.726.434-8.525 3.024-14.049 8.144-20.836l2.25-3.063L176 254h2l.875-2.313C180 249 180 249 182 246c.23-3.067.23-3.067.188-6.563l-.02-3.504C182 233 182 233 181 231c-1.006-14.455-.196-25.218 9.313-36.438 6.164-6.348 11.79-9.527 20.285-11.804 3.477-1.097 6.29-2.878 9.402-4.758h2l.813-1.688C224 174 224 174 225.469 171.77c1.722-3.114 2.418-5.932 3.219-9.394 1.968-7.19 5.023-13.056 10.312-18.375 2.754-1.297 2.754-1.297 5-2v-2a448 448 0 0 1 4.188-2.438l2.355-1.37c5.198-2.52 10.243-2.327 15.957-2.317l4.469-.008c3.223.106 5.913.451 9.03 1.133 6.243.396 12.19.473 18-2 1.25-2.063 1.25-2.063 2-4l3-1 1-3c2.986-1.973 2.986-1.973 6.75-4.063l3.736-2.097c10.21-5.344 22.699-6.239 33.316-1.102"/><path fill="#024018" d="M399.813 193.5A763 763 0 0 1 405 198l2.328 1.891C426.233 215.623 439.43 241.635 442 266c.63 13.892.904 27.564-3 41l-1.254 4.375c-8.958 28.902-26.946 50.867-53.32 65.625-26.404 13.72-55.603 17.144-84.426 9-4.47-1.417-8.728-3.073-13-5l-3.485-1.559C271.148 373.594 260.808 365.474 251 356l-2.012-1.934c-21.076-21.93-28.386-50.785-28.198-80.226.863-23.918 10.87-48.297 27.21-65.84l2.93-3.207c38.467-40.396 104.79-46.787 148.883-11.293"/><path fill="#0f4720" d="M347.8 117.738c5.53 3.172 10.447 6.333 14.888 10.95 4.768 4.897 8.443 6.47 15.312 6.562 3.044-.048 5.886-.23 8.887-.75 11.443-1.838 22.59-1.544 32.238 5.187 9.264 7.515 14.268 16.145 17.375 27.625 1.513 5.273 3.457 8.677 8.18 11.797 3.938 2.124 7.983 3.414 12.258 4.703 10.213 3.31 17.29 10.08 22.28 19.485 4.195 8.928 4.955 18.097 2.72 27.703-1.39 6.36-1.371 12.192 1.625 18.062 1.385 1.67 2.8 3.316 4.304 4.88 7.91 8.343 11.377 16.018 11.696 27.62-.225 7.18-1.382 13.01-4.563 19.438l-.945 1.976c-2.66 5.072-6.411 9.671-10.688 13.477-2.616 2.96-2.39 6.741-2.367 10.547.402 2.8.947 5.547 1.504 8.32 1.747 9.435-.128 18.637-4.824 27.043-7.734 10.883-18.181 16.29-30.805 19.863-2.192.905-3.305 2.016-4.875 3.774l-2 2c-2.427 2.932-3.902 5.756-5.25 9.312l-1.078 2.738c-2.943 12.92 7.589 30.847 11.703 42.387l6.336 17.81c2.724 7.598 5.455 15.194 8.289 22.753.385 5.074.3 9.397-2 14-4.302 2.868-9.002 2.355-14 2a413 413 0 0 1-17.062-5.5c-2.982-1.02-5.963-2.042-9.035-3.094L411 488l-4.312 6.25c-2.513 3.618-5.045 7.225-7.688 10.75-.687 2.25-.687 2.25-1 4h-2l-2.187 3.312c-2.683 3.89-5.191 5.391-9.813 6.688-5.481 0-8.14-2.27-12-6-1.836-3.582-1.836-3.582-3.375-7.813l-1.777-4.847c-2.668-7.71-5.245-15.447-7.793-23.196-3.96-11.842-8.013-23.712-13.055-35.144l-3.187 1c-8.942 2.22-18.015 1.386-26.813-1l-1 6c-4.823 14.063-9.936 28.022-15 42l-2.82 7.968-2.305 6.407-1.945 5.461c-1.904 4.11-3.086 5.886-6.93 8.164-4.391 1.325-6.495 1.187-10.816-.418-5.237-3.232-7.5-6.73-10.81-11.895C255.98 492.71 255.98 492.71 252 489c-8.73-.634-18.718 5.116-26.777 8.066-5.29 1.644-8.795 2.564-14.223 1.934-5.5-3-5.5-3-7-6-.461-7.64.77-13.436 3.313-20.625l1.863-5.352c1.58-4.352 3.196-8.689 4.824-13.023q1.417-3.966 2.813-7.938l1.574-4.472L220 437q1.561-4.438 3.125-8.875l1.488-4.227c1.5-4.216 3.045-8.414 4.626-12.6 1.793-5.409 1.8-8.262-.301-13.673l-1.223-3.274c-4.218-8.243-8.891-11.322-17.527-14.35-12.953-4.9-21.443-10.858-27.563-23.439-2.703-7.166-2.13-15.03-1.625-22.562l1-2c.703-7.084.958-13.23-3.371-19.114-1.855-2.148-3.768-4.236-5.691-6.324-7.204-7.87-9.237-16.255-9.082-26.726.434-8.525 3.024-14.049 8.144-20.836l2.25-3.063L176 254h2l.875-2.313C180 249 180 249 182 246c.23-3.067.23-3.067.188-6.563l-.02-3.504C182 233 182 233 181 231c-1.006-14.455-.196-25.218 9.313-36.438 6.164-6.348 11.79-9.527 20.285-11.804 3.477-1.097 6.29-2.878 9.402-4.758h2l.813-1.688C224 174 224 174 225.469 171.77c1.722-3.114 2.418-5.932 3.219-9.394 1.968-7.19 5.023-13.056 10.312-18.375 2.754-1.297 2.754-1.297 5-2v-2a448 448 0 0 1 4.188-2.438l2.355-1.37c5.198-2.52 10.243-2.327 15.957-2.317l4.469-.008c3.223.106 5.913.451 9.03 1.133 6.243.396 12.19.473 18-2 1.25-2.063 1.25-2.063 2-4l3-1 1-3c2.986-1.973 2.986-1.973 6.75-4.063l3.736-2.097c10.21-5.344 22.699-6.239 33.316-1.102m-39.05 20.2c-9.367 8.283-16.278 9.608-28.871 9.335-3.88-.273-3.88-.273-6.88-1.273-8.172-.634-15.14-.819-22 4l-2.686 1.75c-5.024 4.888-7.38 10.048-9.313 16.75-2.92 10.033-7.86 17.543-17.2 22.718-2.968 1.368-5.902 2.533-9.054 3.407-7.43 2.067-13.024 6.087-17.2 12.664-3.341 7.225-4.076 16.121-1.546 23.711.979 10.696.268 19.08-6 28-1.698 1.851-3.472 3.542-5.32 5.242-4.548 4.76-6.953 10.6-7.367 17.133.476 9.345 5.342 16.691 12.008 22.883 5.577 5.785 6.986 11.786 7.054 19.68-.097 3.676-.212 6.575-1.375 10.062-.763 9.088-.998 16.762 5 24l1.739 2.11c5.762 5.952 12.452 8.032 20.273 10.37 4.172 1.59 6.685 3.573 9.988 6.52h2l.82 1.648q1.26 2.514 2.547 5.016c2.475 4.86 4.83 9.67 6.758 14.773 3.03 7.695 7.845 11.471 14.875 15.563 3.207 1.07 5.57 1.133 8.938 1.125l3.152.008C272 415 272 415 276 414c12.602-.996 22.238-.333 32.227 7.816a81 81 0 0 1 3.664 3.473c7.418 6.017 14.418 6.441 23.617 6.222 9.48-1.079 15.703-5.614 22.53-11.898 8.135-6.69 17.9-6.31 27.962-5.613l3 1c9.053.824 16.507.475 24-5 5.323-4.747 8.695-10.84 10.817-17.602 2.968-9.45 8.226-16.643 17.12-21.336 3.356-1.495 6.714-2.582 10.25-3.562 7.762-2.19 12.849-6.492 16.813-13.5 2.034-4.118 2.24-7.493 2.188-12.063l-.02-3.66c-.137-2.682-.5-4.72-1.168-7.277-1.023-10.047.203-17.623 6-26 1.974-2.136 4.037-4.106 6.164-6.086 4.475-4.666 6.049-9.99 6.336-16.352-.39-8.495-3.12-14.352-8.937-20.5-7.83-8.307-10.167-15.626-9.836-26.996.273-3.066.273-3.066.777-5.023 1.595-6.57 1.797-15.327-1.066-21.543-1.125-1.797-1.125-1.797-2.438-3.5l-1.437-1.89c-3.951-4.52-7.955-6.265-13.59-8.095-9.523-3.253-18.342-7.549-23.4-16.554a74 74 0 0 1-4.949-13.586c-2.045-7.15-6.421-12.758-12.561-16.938-6.474-3.265-14.021-2.49-21.063-1.937l-3 1c-11.808.882-20.428.595-29.578-7.196a367 367 0 0 1-5.105-4.718c-6.307-5.68-13.526-8.554-22.016-8.34-8.32.918-14.58 5.63-20.551 11.191"/><path fill="#07421b" d="M347.8 117.738c5.53 3.172 10.447 6.333 14.888 10.95 4.768 4.897 8.443 6.47 15.312 6.562 3.044-.048 5.886-.23 8.887-.75 11.443-1.838 22.59-1.544 32.238 5.187 9.264 7.515 14.268 16.145 17.375 27.625 1.513 5.273 3.457 8.677 8.18 11.797 3.938 2.124 7.983 3.414 12.258 4.703 10.213 3.31 17.29 10.08 22.28 19.485 5.063 10.775 4.492 21.33 1.782 32.703h-2c.087 2.292.195 4.584.313 6.875l.176 3.867.51 3.258 3 2h-8v-2h-3v-4h-2c-.56-8.73-1.067-17.375-.811-26.125.026-8.154-1.776-12.713-7.438-18.5-4.977-4.123-10.883-5.899-16.945-7.918-8.84-3.385-15.533-9.218-19.555-17.77-1.515-3.58-2.688-7.12-3.687-10.875-1.955-6.803-5.57-11.814-11.438-15.812-6.505-3.32-14.031-2.558-21.125-2l-3 1c-11.808.882-20.428.595-29.578-7.196a367 367 0 0 1-5.105-4.718c-6.307-5.68-13.526-8.554-22.016-8.34-8.32.918-14.58 5.63-20.551 11.191-9.367 8.284-16.278 9.61-28.871 9.336-3.88-.273-3.88-.273-6.88-1.273-8.034-.623-15.33-.98-22 4-5.961 5.15-8.785 9.924-10.936 17.375-2.805 9.565-7.691 18.062-16.641 23.066-4.292 2.008-8.558 3.63-13.11 4.934-5.985 1.941-10.367 5.507-13.7 10.847-3.368 7.272-4.163 16.125-1.612 23.778.979 10.696.268 19.08-6 28-1.698 1.851-3.472 3.542-5.32 5.242-4.548 4.76-6.953 10.6-7.367 17.133.476 9.345 5.342 16.691 12.008 22.883 5.577 5.785 6.986 11.786 7.054 19.68-.097 3.676-.212 6.575-1.375 10.062-.763 9.091-.973 16.74 5 24l1.516 1.886c5.393 5.6 12.25 7.272 19.473 9.661 8.679 3.143 13.803 8.311 18.01 16.453a364 364 0 0 1 5.193 13.11c2.422 5.211 5.792 8.376 10.433 11.64l1.727 1.234c3.497 2.155 6.588 2.151 10.586 2.141l3.152.008C272 414 272 414 276 413c14.067-1.112 23.68.45 34.5 9.625A177 177 0 0 1 314 426l2.5 2.437L318 430l-1.426.953c-3.454 2.374-6.302 4.438-8.574 8.047-.474-.68-.95-1.362-1.437-2.063-4.95-5.674-11.236-11.355-18.992-12.203-3.913.025-7.168.146-10.946 1.266-8.537 2.355-17.541 1.6-25.625-2a94 94 0 0 1-7.187-4.793C242 418 242 418 240 418l-3.472 10.05-4.59 13.262-4.535 13.114A1689 1689 0 0 1 216 486l5-1-1 3c-2.562 1.187-2.562 1.187-5 2l2 1v5l-2.812-.563C211 495 211 495 208 496v-3l-3 1c-1-1-1-1-1.27-5.399.29-6.009 1.582-10.567 3.583-16.226l1.863-5.352c1.58-4.352 3.196-8.689 4.824-13.023q1.417-3.966 2.813-7.938l1.574-4.472L220 437q1.561-4.438 3.125-8.875l1.488-4.227c1.5-4.216 3.045-8.414 4.626-12.6 1.793-5.409 1.8-8.262-.301-13.673l-1.223-3.274c-4.218-8.243-8.891-11.322-17.527-14.35-12.953-4.9-21.443-10.858-27.563-23.439-2.703-7.166-2.13-15.03-1.625-22.562l1-2c.703-7.084.958-13.23-3.371-19.114-1.855-2.148-3.768-4.236-5.691-6.324-7.204-7.87-9.237-16.255-9.082-26.726.434-8.525 3.024-14.049 8.144-20.836l2.25-3.063L176 254h2l.875-2.313C180 249 180 249 182 246c.23-3.067.23-3.067.188-6.563l-.02-3.504C182 233 182 233 181 231c-1.006-14.455-.196-25.218 9.313-36.438 6.164-6.348 11.79-9.527 20.285-11.804 3.477-1.097 6.29-2.878 9.402-4.758h2l.813-1.688C224 174 224 174 225.469 171.77c1.722-3.114 2.418-5.932 3.219-9.394 1.968-7.19 5.023-13.056 10.312-18.375 2.754-1.297 2.754-1.297 5-2v-2a448 448 0 0 1 4.188-2.438l2.355-1.37c5.198-2.52 10.243-2.327 15.957-2.317l4.469-.008c3.223.106 5.913.451 9.03 1.133 6.243.396 12.19.473 18-2 1.25-2.063 1.25-2.063 2-4l3-1 1-3c2.986-1.973 2.986-1.973 6.75-4.063l3.736-2.097c10.21-5.344 22.699-6.239 33.316-1.102"/><path fill="#fab603" d="M421 417l3 1c2.521 6.516 4.889 13.09 7.188 19.688l4.046 11.55L439 460c2.237 6.1 4.493 12.191 6.777 18.273C447 482 447 482 447 486c-10.038-1.929-19.378-5.676-28.945-9.199-8.783-2.612-8.783-2.612-13.055-.801-3.5 3.902-3.5 3.902-7 8.938l-3.672 5.203L391 495q-2.124 3.095-4.25 6.188l-1.516 2.292L384 505h-2l-9.188-25.625-5.167-14.414L363 452l-3.176-8.398C358 438 358 438 359 433c1.891-1.949 1.891-1.949 4.25-3.688l2.328-1.761c5.467-3.501 10.064-4.127 16.422-3.551l3.25 1c9.81 2.616 20.176 1.559 29.109-3.277 4.94-3.022 4.94-3.022 6.641-4.723"/><path fill="#fbb703" d="M240 417a430 430 0 0 1 6.84 3.473l3.098 1.589 3.089 1.598c8.651 3.899 18.107 2.967 26.973.34 6.947-.804 12.215.001 18 4a129 129 0 0 1 8 7c-3.837 11.51-7.897 22.935-11.938 34.375l-4.839 13.711A2988 2988 0 0 1 281 506c-4.003-4.003-7.036-8.078-10.312-12.688l-3.497-4.847a385 385 0 0 1-5.351-7.649l-1.715-2.441-1.367-2.039C257 475 257 475 250 475a447 447 0 0 0-15.75 5.5C219.278 486 219.278 486 216 486c1.983-9.915 5.929-19.41 9.25-28.938l4.578-13.152c9.024-25.762 9.024-25.762 10.172-26.91"/><path fill="#fab703" d="M330 231c2 0 2 0 4 1 1.135 2.986 2.001 6.002 2.859 9.078 3.347 11.917 8.447 22.33 19.348 28.836 6.191 3.26 11.933 5.811 18.902 6.699C377 277 377 277 379 279c-.375 2.125-.375 2.125-1 4l-2.688.688c-15.106 4.412-26.503 10.446-34.527 24.429-2.676 5.514-3.933 11.279-5.172 17.258C335 328 335 328 334 329c-2.5.125-2.5.125-5 0-1.904-1.904-1.764-5.325-2.188-7.875-1.477-7.643-3.828-15.178-9.5-20.797C316 299 316 299 316 297l-1.75-.82c-2.262-1.186-4.19-2.549-6.25-4.055-5.306-3.596-10.902-5.315-17-7.125a843 843 0 0 1-6-2l1-5c2.941-.996 5.876-1.964 8.859-2.824 11.288-3.371 19.937-8.999 26.141-19.176 3.469-6.744 5.552-13.307 6.543-20.82C328 233 328 233 330 231"/><path fill="#054119" d="M228 378c3.365.28 4.689.663 7.016 3.188 1.994 2.827 3.235 5.406 4.484 8.624 4.177 10.367 7.586 17.154 17.5 23.188 3.207 1.069 5.57 1.133 8.938 1.125l3.152.008C272 414 272 414 276 413c14.067-1.111 23.68.45 34.5 9.625A177 177 0 0 1 314 426l2.5 2.438L318 430l-1.426.953c-3.454 2.374-6.302 4.438-8.574 8.047l-1.438-2.062c-4.95-5.675-11.235-11.356-18.992-12.204-3.912.025-7.167.147-10.945 1.266-8.538 2.355-17.541 1.6-25.625-2a94 94 0 0 1-7.188-4.793C242 418 242 418 240 418l-3.473 10.051-4.589 13.261-4.536 13.114A1689 1689 0 0 1 216 486l5-1-1 3c-2.562 1.188-2.562 1.188-5 2l2 1v5l-2.812-.562C211 495 211 495 208 496v-3l-3 1c-1-1-1-1-1.27-5.398.29-6.01 1.581-10.568 3.582-16.227l1.864-5.352c1.58-4.352 3.196-8.688 4.824-13.023a1464 1464 0 0 0 2.812-7.938l1.575-4.472a10017 10017 0 0 1 4.738-13.465l1.488-4.227c1.5-4.216 3.045-8.414 4.625-12.601 1.795-5.413 1.648-7.647-.601-12.961-1.203-4.413-.318-8.875.363-13.336h-3Z"/><path fill="#124a25" d="M468 232h2v14h2v4l8 1-.5-1.875c-.701-4.38-.577-8.699-.5-13.125h1l.41 2.344c1.38 6.674 2.983 10.862 7.75 15.73 9.047 9.469 11.431 18.873 11.195 31.719-.475 5.626-1.863 10.171-4.355 15.207l-.945 1.977c-2.659 5.071-6.412 9.671-10.688 13.476-2.616 2.961-2.39 6.742-2.367 10.547.402 2.8.947 5.548 1.504 8.32 1.747 9.435-.128 18.638-4.824 27.043-7.735 10.883-18.182 16.29-30.805 19.864-2.192.904-3.305 2.016-4.875 3.773l-2 2-1.5 2c-1.5 2-1.5 2-3.5 4l-6-3 1-7c-3.189 4.186-4.504 6.706-4 12h-3v3h-2c2.483-11.652 7.273-19.944 17-27 4.174-2.617 8.396-4.169 13.125-5.5 7.453-2.146 12.045-5.825 15.875-12.5 2.037-4.116 2.241-7.493 2.188-12.062l-.02-3.661c-.137-2.681-.499-4.719-1.168-7.277-1.023-10.047.203-17.623 6-26 1.973-2.136 4.037-4.105 6.164-6.086 4.475-4.665 6.049-9.99 6.336-16.352-.39-8.495-3.119-14.351-8.938-20.5-6.852-7.271-9.834-13.681-9.874-23.75.079-2.105.174-4.21.312-6.312"/><path fill="#08441b" d="M430 383c.931 2.606 1.149 3.642.062 6.25L429 391l5 2 1-2q-.217 2.031-.438 4.062l-.269 2.508c-.237 1.966-.564 3.92-.918 5.868-.487 4.628.024 8.964.625 13.562h-2l-.75 1.75c-1.417 2.55-3.126 4.268-5.25 6.25l-3-7c-2.834 1.379-5.537 2.899-8.25 4.5-9.095 5.005-19.408 6.191-29.5 3.5l-3.25-1c-6.673-.854-11.373.398-17 4l-1.867 1.133c-1.695 1.179-1.695 1.179-4.133 3.867 2.125 14.874 9.072 29.064 14.316 43.086C377 488 377 488 377 497c.282 2.008.593 4.014 1 6l-7-1v-4l-2-1v2h-2c-5.327-14.07-10.326-28.241-15.293-42.441A256 256 0 0 0 346 442l-6 1 2-1v-3c2.375-.125 2.375-.125 5 0l2 2-2-8-3 1-3-1-1-3 2.344-1.066c5.094-2.415 9.675-4.648 13.781-8.559 7.949-7.316 15.892-7.803 26.434-7.613C386 413 386 413 389 414c8.933.813 16.685.624 24-5 2.856-3.054 5.131-6.263 7-10h3v-3h3l-.75-2.625c-.325-4.383 1.079-5.998 3.75-9.375Z"/><path fill="#0a451f" d="M412 136c12.169 5.859 18.219 13.397 23 26a201 201 0 0 1 1.562 5.438c1.475 5.227 3.442 8.584 8.118 11.671 3.938 2.125 7.983 3.415 12.258 4.703 10.213 3.31 17.29 10.08 22.281 19.485 5.062 10.776 4.491 21.33 1.781 32.703h-2c.087 2.292.195 4.584.312 6.875l.176 3.867L480 250l3 2h-8v-2h-3v-4h-2c-.56-8.731-1.069-17.375-.812-26.125.026-8.154-1.776-12.713-7.438-18.5-4.977-4.123-10.883-5.899-16.945-7.918-8.839-3.385-15.533-9.218-19.555-17.769-1.516-3.581-2.688-7.121-3.688-10.876-2.037-7.242-6.449-12.497-12.562-16.812l6-6-3-2Z"/><path fill="#08431b" d="M165 271l1 2h3l-1 6h-3l1 5h5v-2h4l.996 2.711c3.009 7.648 6.211 13.042 11.879 18.949 6.755 7.438 7.659 14.248 7.398 24.117C195 331 195 331 194 334c-.763 9.092-.973 16.74 5 24l1.516 1.887c5.384 5.59 12.223 7.279 19.449 9.625 4.929 1.818 8.147 4.014 12.035 7.488l-1.922 1.332c-2.478 1.989-3.111 3.686-4.078 6.668h3c.125 2.875.125 2.875 0 6l-2 2-1.031-1.609c-4.501-6.56-8.687-8.862-16.055-11.493-12.636-4.565-21.341-11.109-27.289-23.336-2.703-7.166-2.129-15.031-1.625-22.562l1-2c.702-7.084.958-13.23-3.371-19.113-1.855-2.149-3.769-4.236-5.691-6.325-8.012-8.751-9.376-18.049-8.938-29.562.272-2.009.572-4.018 1-6"/><path fill="#124923" d="M420.707 476.742l6.105 2.133 6.145 2.117C438 483 438 483 441 486c-1.245 3.736-2.634 4.187-6 6l1 2c-8.643-1.184-16.725-3.25-25-6l-1.863 2.703-2.45 3.547-2.425 3.515a154 154 0 0 1-4.012 5.516c-1.376 1.892-1.842 3.431-2.25 5.72h-2l-2.188 3.312c-2.682 3.89-5.191 5.391-9.812 6.688-4.345 0-7.351-1.275-10.605-4.21-2.889-3.707-4.444-8.225-5.395-12.79.402-2.844.402-2.844 1-5l3 1 1 3c2.062.687 2.062.687 4 1l-.289-1.899-.336-2.476-.352-2.46L376 493l2-2q1.005 2.936 2 5.875l1.125 3.305C382 503 382 503 382 505c3.617-3.434 6.479-6.922 9.25-11.063 14.76-21.682 14.76-21.682 29.457-17.195"/><path fill="#0c451c" d="M352 424c6.516 4.931 5.701 7.802 8 17 4.367 12.124 8.876 24.191 13.387 36.262C377 488 377 488 377 497c.282 2.008.593 4.014 1 6l-7-1v-4l-2-1v2h-2c-5.327-14.07-10.326-28.241-15.293-42.441A256 256 0 0 0 346 442l-6 1 2-1v-3c2.375-.125 2.375-.125 5 0l2 2-2-8-3 1-3-1-1-3Z"/><path fill="#08421c" d="M412 136c.688 2 .688 2 1 4l3 2c-3.32 4.785-3.32 4.785-5 6-2.668-.309-2.668-.309-6-1-2.728-.091-5.458-.13-8.188-.125l-4.23-.008C389 147 389 147 386 148c-2.228.069-4.458.085-6.688.062l-3.574-.027L373 148l2-1v-2l-1.863-.148-2.449-.227-2.426-.211C366 144 366 144 363 142c2.173-2.499 3.683-3.61 7-4 2.75.438 2.75.438 5 1v-2c11.695-2.823 25.488-5.936 37-1"/><path fill="#033e17" d="M191 240h2c1.515 3.03 1.524 5.726 1 9-1.896 5.306-4.36 9.659-8.5 13.5-6.287 5.834-9.031 13.063-9.5 21.5l-1-2h-4v2l-6 2v-7h3l1-6h-3c-.319-4.124.365-6.147 2.75-9.5l1.656-2.34L172 259l2.25-3.062L176 254h2l.75-2.375C180 249 180 249 181.938 248.062c3.059-1.576 3.728-3.995 5.062-7.062l4 2Z"/><path fill="#0f4822" d="M334 115c12.216.053 20.075 5.84 28.727 13.945 5.342 4.829 10.141 6.554 17.273 7.055v1h-5v2c-3.29 1.097-4.713.8-8 0l-2 3 1 2c2.066.414 2.066.414 4.562.625l2.504.227L375 145v2c-4.216 1.442-6.835.934-10.75-.875-4.983-2.675-8.837-6.18-12.934-10.039-4.549-4.097-9.435-6.365-15.316-8.086l1-3h2l.312-1.75c.786-2.57 1.993-4.187 3.688-6.25l-9 1Z"/><path fill="#124a24" d="M468 232h2v14h2v4l8 1-.5-1.875c-.701-4.38-.577-8.699-.5-13.125h1l.41 2.344c1.38 6.674 2.983 10.862 7.75 15.73 9.287 9.721 11.176 18.989 11.141 32.098-.261 3.317-.504 5.107-2.301 7.828l-2-5h3l-1-6-2.25 1c-2.75 1-2.75 1-6.75 1l1.5-1.125c2.098-2.622 1.717-4.613 1.5-7.875l5-1v-4l-3 1v-5c-4.875 2.75-4.875 2.75-6 5l1 3-2 2-.559-1.836c-1.845-5.331-3.95-9.022-7.879-13.102-6.852-7.271-9.834-13.681-9.874-23.75.079-2.105.174-4.21.312-6.312"/><path fill="#0e4822" d="M211.625 366.563c7.631 2.296 14.058 5.599 20.375 10.438-.619.39-1.238.783-1.875 1.187-2.45 2.09-3.144 3.786-4.125 6.813h3c.125 2.875.125 2.875 0 6l-2 2-1.031-1.61c-4.517-6.582-8.721-8.842-16.09-11.526-6.822-2.5-12.396-5.044-17.879-9.863l3-2 1.187 1.374c2.121 1.901 4.143 2.688 6.813 3.625l.813-1.813c2.922-5.384 2.922-5.384 7.812-4.625"/><path fill="#174f2a" d="M456 475c3.527 5.29 4.585 9.636 4 16-1.1 5.4-1.1 5.4-4.062 7.375-9.912 2.109-17.633-.942-26.938-4.375l1.836-.371c2.959-.86 4.798-2.698 7.164-4.629h2v-5l7 2-2-8h3v4h2v-2h6Z"/><path fill="#0a451f" d="M412 136c12.065 5.809 18.427 13.38 23 26 .881 3.317 1.555 6.598 2 10h-4l-2-5h3l-1-7-1.875 1.5C429 163 429 163 427 163v3h-3l-1 4-.445-1.906C420.281 159.417 416.409 153.23 409 148l6-6-3-2Z"/><path fill="#043f17" d="M410.441 474.133c5.676 1.08 10.917 2.837 16.371 4.742l6.145 2.117C438 483 438 483 441 486c-1.246 3.737-2.634 4.188-6 6l1 2c-4.558-.438-7.577-.85-11-4h4v-5l-4-1v4l-1 2c-.516-.31-1.032-.62-1.563-.937-3.104-1.353-6.089-1.676-9.437-2.063v-2l-2-1v-3l-3 3-3-2-1.375 2-1.625 2h-2c1.324-6.14 3.052-12.152 10.441-11.867"/><path fill="#0e4721" d="M433 410c3.991 5.986 5.801 13.329 8.188 20.062l3.355 9.411C447 447 447 447 446 449h-2l-1-5c-3.178 1.804-5.379 3.379-8 6a3897 3897 0 0 1-3.375-8.562l-1.898-4.817c-4.056-10.855-4.056-10.855-2.68-14.055l1.703-2.004 1.672-2.058C432 417 432 417 434 417Z"/><path fill="#4f981b" d="M276 211c3.516 2.852 3.516 2.852 7.25 6.625l3.766 3.727c2.9 3.545 4.023 5.132 3.984 9.648-1.827 2.67-3.033 3.773-6.195 4.516-4.583-.843-6.838-3.891-10.055-7.141l-3.766-3.727c-2.9-3.545-4.023-5.132-3.984-9.648 2.556-3.736 4.559-4.817 9-4"/><path fill="#124824" d="M181 348h4v5l2.25-2.562C190 348 190 348 192.035 348.094c2.606 1.201 2.991 2.374 4.153 4.968 2.841 5.577 6.979 9.074 11.812 12.938l-5 7-6-1v-2l-3.125-.438c-4.53-1.293-6.234-4.209-8.586-8.109C183.012 357.119 181 352.98 181 348"/><path fill="#52991d" d="M390.813 210.438C394 211 394 211 396 213c.535 3.16.535 3.16 0 7-2.817 3.746-2.817 3.746-6.563 7.438l-3.691 3.746C382 234 382 234 378.16 234.536 375 234 375 234 373 232c-.563-2.625-.563-2.625 0-6 2.034-2.965 4.488-5.439 7-8l1.777-2.066c3.048-3.42 4.369-4.808 9.036-5.496"/><path fill="#539b1b" d="M285.84 325.516c2.16.484 2.16.484 3.973 1.609 1.872 2.957 1.84 4.414 1.187 7.875-2.011 2.999-4.433 5.472-7 8l-2.07 2.102c-3.906 3.728-3.906 3.728-5.93 4.898-2.783-.256-4.515-.693-6.875-2.187C268 346 268 346 268.008 343.348c1.423-4.801 4.206-7.223 7.742-10.723l3.735-3.773C283 326 283 326 285.84 325.516"/><path fill="#56a01d" d="M377.098 326.523c5.508.673 7.504 3.181 11.34 7.102l3.746 3.726c2.816 3.65 2.816 3.65 3.293 6.988C395 347 395 347 393.937 348.937c-2.391 1.312-4.224 1.47-6.901.97-4.588-2.044-7.753-6.226-11.036-9.907l-2.625-2.625c-1.966-3.398-1.303-5.663-.375-9.375 1-1 1-1 4.098-1.477"/><path fill="#134b26" d="M236 482h2l1 8 3 1a1586 1586 0 0 1-11 4l-6.188 2.25c-10.462 3.15-10.462 3.15-15.906.875L205 495l1-2h2l1 2 1.75-.625c2.77-.462 3.896.196 6.25 1.625v-5l-3-1 1.75-.75c2.25-1.25 2.25-1.25 4.188-3.375C222 484 222 484 224.625 483.812L227 484l2-1h6Z"/><path fill="#05411a" d="M321 430l20 1v2h4l2-3 3 11-2 2-1-3-5-1v3c-3.516 2.175-6.35 2.239-10.438 2.188l-3.371-.02A45.6 45.6 0 0 1 320 443l2-2-2-2 1.938-.75C324 437 324 437 324.75 434.875L325 433l-4 1Z"/><path fill="#034219" d="M473 221l7 1q.57 3.49 1 7l-1 1c-.153 3.31-.222 6.624-.25 9.938l-.078 5.527L480 250l3 2h-8v-2h-3v-4h-2l-1-18 2-1 1 3c.701-3.153 1-5.727 1-9"/><path fill="#054219" d="M378 415c-3.75 5.875-3.75 5.875-6 7l-.75 1.812c-1.773 3.103-4.247 4.304-7.25 6.188a256 256 0 0 0-5 4c-2.671-2.671-4.558-5.501-6-9 .486-3.302 2.728-4.716 5.25-6.688 6.102-4.084 12.661-3.438 19.75-3.312"/><path fill="#043f18" d="M228 378c3.355.28 4.685.658 7.004 3.176 2.032 2.876 3.366 5.565 4.684 8.824l1.261 3.062A45 45 0 0 1 243 401l-4-1v-4l-3 1c-.879 2.031-.879 2.031-1.562 4.5-.692 2.469-.692 2.469-1.438 4.5l-2 1-.375-2.125c-.625-2.875-.625-2.875-1.75-5.5-1.269-4.893-.529-9.41.125-14.375h-3Z"/><path fill="#033f17" d="M493 267v5h2l1-4q.57 3.49 1 7c-1 1-1 1-3.562 1.062L491 276l.688 2.812C492 282 492 282 490.562 283.875L489 285l1.75-1c2.25-1 2.25-1 6.25-1v-7h1v13h-3l2 1v5c-3.566 1.783-7.283-.097-11-1l.254-4.27.308-5.542.317-5.52C487 274 487 274 486 271c3.625-4 3.625-4 7-4"/><path fill="#1a502c" d="M476 206l5 1c2.731 10.093 2.415 18.864 0 29h-1a473 473 0 0 1-.562-4.75l-.317-2.672c-.116-2.462.143-4.243.879-6.578l-1.812.625C476 223 476 223 473 221l.688 3.312C474 228 474 228 472.562 229.938L471 231c-1.068-4.273-1.098-7.853-1.062-12.25l.027-4.391L470 211l1.875-.812C474 209 474 209 476 206"/><path fill="#104823" d="M485 290l1 4 11 1c-1.585 5.546-3.922 9.784-7.875 14-2.125 1-2.125 1-5.313.438C481 308 481 308 480.125 305.875L480 304l-3 1c-.688 2.062-.688 2.062-1 4l-3-2 1.391-1.539c8.714-9.776 8.714-9.776 10.609-15.461"/><path fill="#255936" d="M477 304h3l.688 1.938C482 308 482 308 484.438 308.875 487 309 487 309 490 307v3c-1.461 1.43-1.461 1.43-3.375 2.875-3.059 2.534-4.804 4.11-5.625 8.125-.139 3.341-.117 6.659 0 10-2.19-3.285-2.998-6.207-4-10l-3 1c-.688 2.062-.688 2.062-1 4h-1c-1.125-7.75-1.125-7.75 0-10h-2c.875-5.75.875-5.75 2-8l2-.438 2-.562Z"/><path fill="#0d4720" d="M181 221l1 2h2v5h10c1.28 3.839 1.095 7.144 1.062 11.188l-.027 4.417L195 247h-1l-1-7h-2v3h-4l-2 6-4-2 1-1c.099-2.144.13-4.291.125-6.438l.008-3.558C182 233 182 233 181 231a95 95 0 0 1-.062-5.125l.027-2.758Z"/><path fill="#124b26" d="M466 365v9c-5.406 3.432-9.38 5.794-16 5l-3-1c.485-2.262 1.037-4.07 2.125-6.125L450 370l-1-2c10.189-6.109 10.189-6.109 17-3"/><path fill="#154c28" d="M468 351c.687 2.491 1 4.379 1 7l1.562-2.562L473 353c3.75.188 3.75.188 7 1l1-2c-.386 7.521-5.201 13.315-10.25 18.562C468 373 468 373 466 373v-8l-2.438-.375L461 364l-1-2 2.312-2.125c2.654-2.839 4.128-5.344 5.688-8.875"/><path fill="#023f17" d="M387 136l2 4a159 159 0 0 1-5 6h-2v2h-9l2-1v-2l-1.863-.148-2.449-.227-2.426-.211C366 144 366 144 363 142c2.173-2.499 3.683-3.61 7-4 2.75.438 2.75.438 5 1v-2c4.053-.982 7.839-1.082 12-1"/><path fill="#0d4520" d="M488 257c5.239 2.096 6.711 5.791 8.984 10.625 2.043 4.777 2.181 8.617 2.204 13.813l.042 4.558c-.198 3.443-.345 5.211-2.23 8.004l-2-5h3l-1-6-2.25 1c-2.75 1-2.75 1-6.75 1l1.5-1.125c2.098-2.622 1.717-4.613 1.5-7.875l5-1v-4l-3 1v-5l-6 3-1-1c.064-1.836.201-3.671.375-5.5l.273-3.031C487 258 487 258 488 257"/><path fill="#19512c" d="M423 145c5.904 2.469 7.945 7.89 10.688 13.375 1.62 4.475 2.511 8.943 3.312 13.625h-4l-2-5h3l-1-7-1.875 1.5C429 163 429 163 427 163v3h-3l-1 4-.621-2.082-.817-2.73-.808-2.708A215 215 0 0 0 419 157l2.312-.25c3.212-.896 3.982-1.966 5.688-4.75l-3-2c-.688-2.625-.688-2.625-1-5"/><path fill="#034018" d="M195 356l1.812 2.375c2.965 3.557 5.939 5.017 10.188 6.625 0 3.908-1.506 5.116-4 8l-6-1v-2l-5-1-1-3 3-1-5-1v-4c2.438-1.688 2.438-1.688 5-3Z"/><path fill="#144d27" d="M334 115c9.044.039 16.694 2.919 23.32 9.199L359 126c-4.75-.75-4.75-.75-7-3l-3-1-1 5h-2v3l2 1c-3.015 0-4.869-.52-7.688-1.5l-2.449-.844L336 128l1-3h2l.312-1.75c.786-2.57 1.993-4.187 3.688-6.25l-9 1Z"/><path fill="#134c26" d="M451 183c5.774.481 9.959 2.185 15 5-2.151 1.673-4.255 3.146-6.625 4.5C457 194 457 194 455 197l-12-4 1-3 1 2 1-2 1.938-.438C450 189 450 189 452 186h2v-2l-3 1Z"/><path fill="#549d19" d="M277 216c2.862 1.283 5.025 2.531 7 5v3l3 1-1 6-1.938.375L282 232l-1 2a696 696 0 0 1-4-3.875l-2.25-2.18C273 226 273 226 273 224h2l.438-2.312C276 219 276 219 277 216"/><path fill="#023f17" d="M471 337h1l1 8 3-4c1.938.375 1.938.375 4 1 1.123 2.245 1.134 3.515 1.125 6l.008 2.125C481 352 481 352 480 354l-3.25-.312C473 354 473 354 470.562 356.5L469 359c-.991-3.106-.959-5.052-.125-8.188 1.131-4.599 1.676-9.098 2.125-13.812"/><path fill="#023e17" d="M328 115h6v3l9-1-5 10-2.562-.438A459 459 0 0 0 325 125l2-1v-5h-4l1-2h3Z"/><path fill="#50991b" d="M390 337c2.5 1.625 2.5 1.625 5 4 .528 3.235.52 5.053-1.062 7.938C392 350 392 350 388.812 350.188c-5.276-1.644-8.424-4.885-11.812-9.188v-2l1.688 1.062c2.944 1.194 4.314.912 7.312-.062 2.312-1.562 2.312-1.562 4-3"/><path fill="#124919" d="M272 414c3.125.375 3.125.375 6 1l-2 1-.125 3.875-.07 2.18C276 424 276 424 278 426c-8.436 1.928-16.763 1.535-25-1 2-2 2-2 5.039-2.195l3.586.07 3.602.055L268 423v-5h2v-2Z"/><path fill="#0f4a22" d="M184 301c4.762 3.571 7.409 6.618 10 12v3h-3l-1-6c-2.375.562-2.375.562-5 2-1.312 3.625-1.312 3.625-2 7l-1.25-1.688a134 134 0 0 0-3.938-4.937C176 310 176 310 176 308l2.312-1.375c2.697-1.63 3.983-3.022 5.688-5.625"/><path fill="#023e17" d="M326 432h12c2 4 2 4 2 8l-4 2v1l-3.875.188-2.18.105L328 443c-2.675-4.013-2-6.083-2-11"/><path fill="#579e1c" d="M385 217l2 1v2h2l2 5a262 262 0 0 1-4.125 4.5l-2.32 2.531c-3.095 2.386-4.74 2.367-8.555 1.969l4-2-2-3c.09-4.134.723-5.688 3.5-8.812L384 218Z"/><path fill="#124d25" d="M165 271l1 2h3l-1 6h-3l1 5h5v-2h4c1 3 1 3 0 6-2.438 2.688-2.438 2.688-5 5h-2v5c-4.08-4.08-4.135-10.121-4.188-15.625.071-3.877.366-7.573 1.188-11.375"/><path fill="#1a522c" d="M433 410c2.643 3.964 4.028 8.097 5.688 12.562l1.949 5.192C442 432 442 432 441 434c-2-1-2-1-3-3.938L437 427l-2-2-6 7c-2.72-4.08-2.72-4.08-3-7 1.145-2.141 1.145-2.141 2.812-4.25l1.645-2.141L432 417h2Z"/><path fill="#023f18" d="M371 487c3.062 1.021 4.147 1.441 6 4 .125 2.812.125 2.812 0 6 .297 2.006.621 4.008 1 6l-7-1v-4l-2-1v2h-2c-1.132-5.225-1.132-5.225-1-8 2.25-2.562 2.25-2.562 5-4"/><path fill="#09451d" d="M276 413q4.406-.079 8.812-.125l4.958-.07C294 413 294 413 297 415l-5 1v2c-1.746 2.401-3.11 3.791-6.047 4.48-1.977.242-3.965.387-5.953.52.875-5.75.875-5.75 2-8l-6-1Z"/><path fill="#134c26" d="M237 386c2.638 3.104 3.704 5.815 4.688 9.75l.761 2.984L243 401l-4-1v-4l-3 1c-.879 2.031-.879 2.031-1.562 4.5-.692 2.469-.692 2.469-1.438 4.5l-2 1-.375-1.938c-.823-4.032-1.724-8.046-2.625-12.062l2.875.062C234 393 234 393 236 392v3h2l-1.062-1.688c-1.156-2.851-.748-4.397.062-7.312"/><path fill="#013d16" d="M474 236h5l.113 2.992.199 3.883.176 3.867L480 250l3 2h-8v-2h-3v-4l-2-1 2-3a167 167 0 0 0 2-6"/><path fill="#205432" d="M225.848 376.902 232 377l-1.875 1.187c-2.45 2.09-3.143 3.787-4.125 6.813h3c.125 2.875.125 2.875 0 6l-2 2-1.031-1.61c-3.2-4.663-5.904-7.393-11.137-9.6C213 381 213 381 210 379c1.437-.082 2.875-.14 4.313-.188l2.426-.105c2.74.355 3.553 1.186 5.26 3.293.146-.64.29-1.279.439-1.938.824-3.023.824-3.023 3.41-3.16"/><path fill="#0b4619" d="M300 416l7 4a125 125 0 0 1-4 6h-2l3 6c-4.295 0-5.839-2.234-9-5l-3-2 1.875-.688c2.739-1.691 3.175-3.304 4.125-6.312h2Z"/><path fill="#0a451e" d="M193 231h2v16h-1l-1-7h-2v3h-4l-3 1v-9l2.312-.438C189 234 189 234 192 233Z"/><path fill="#09461c" d="M246 408c4.314.479 6.166 1.746 9 5-2.248 3.416-3.666 4.863-7.5 6.438-3.521.565-4.671.599-7.5-1.438l-2 3c-2-3-2-3-2-6l3.812.312c2.204.012 2.204.012 4.188-.312 2.062-2.375 2.062-2.375 3-5Z"/><path fill="#1d512d" d="M225 249c2 2 2 2 2.125 4.625L227 256h-2v13h-1l-1 25c-5.73-8.595-2.385-25.468-.562-35.25.716-3.337 1.483-6.514 2.562-9.75"/><path fill="#013f17" d="M260 484h3l4 4h-2v2h2l1 3h-4l-1 4h-3v-2h-2l-.875-2.375C256 490 256 490 254 488l2.438-1.438C259 485 259 485 260 484"/><path fill="#053e18" d="M220 178h3v2l5-2 2 3h3c-1.56 3.828-3.836 6.364-7 9-2.312-.188-2.312-.188-4-1-2.125-6.75-2.125-6.75-1-9l-2-1Z"/><path fill="#184e29" d="M469 314l1 2h2l-1 14h2l-1 5 3 1c-1.625 7.75-1.625 7.75-5 10-3.733-23.8-3.733-23.8-1-32"/><path fill="#033e18" d="M305 131l3 4-1 2h-2l1 4c-4.625 4-4.625 4-8 4v-3h-2c-.125-2.375-.125-2.375 0-5 2-2 2-2 4.625-2.125L303 135Zm154 232 7 2v8l-2-2c-3 1-3 1-4.438 2.5-1.814 1.742-3.118 2.079-5.562 2.5.387-5.712.87-8.737 5-13"/><path fill="#033f18" d="M435 424l3 1c.73 2.066.73 2.066 1.188 4.562l.48 2.504L440 434c-3.75 1.125-3.75 1.125-6 0l-1 5h-2c-1.432-2.274-2.009-3.663-1.938-6.375 1.296-3.629 3.354-5.776 5.938-8.625"/><path fill="#023e17" d="M349 122c4.75.75 4.75.75 7 3l3 1-2 4h-3v3l-4-1-1 2c-3-3.625-3-3.625-3-7h2Z"/><path fill="#0a421c" d="M184 255v2h2v-2h5c-3.198 5.117-6.958 9.527-11 14l-2-1 2-7h-3c1.385-4.156 2.473-6 7-6"/><path fill="#0c4620" d="M283 136h5c1.158 3.473 1.069 6.361 1 10l5 1v1h-18v-1l8-1c-1-3-1-3-3-5Z"/><path fill="#e8af08" d="M296.406 426.832C298 428 298 428 300 431c-3.349 1.052-4.59 1.2-7.813-.375L290 429v-1l-3.21.07-4.165.055-4.149.07C275 428 275 428 273 426c8.208-2.855 15.594-3.346 23.406.832"/><path fill="#2c5f3d" d="M496 267c3.266 4.9 3.163 8.626 3.188 14.438l.042 4.558c-.198 3.443-.345 5.211-2.23 8.004l-2-5h3l-1-6-2.25 1c-2.75 1-2.75 1-6.75 1l1.5-1.125c2.098-2.622 1.717-4.613 1.5-7.875l5-1Z"/><path fill="#164617" d="M305 438l2 2c-.336 3.806-1.794 7.191-3.168 10.73-1.476 4.028-2.642 8.151-3.832 12.27h-3c.533-5.926 1.852-10.896 4-16.438l1.625-4.246C304 439 304 439 305 438"/><path fill="#174f29" d="M437 172l2.125 2.25c2.803 2.681 5.602 4.686 8.875 6.75l3 2c-3.75 1.125-3.75 1.125-6 0-3.279.41-4.622.622-7 3-2.125-.375-2.125-.375-4-1 .47-2.192.98-3.963 2.062-5.938 1.129-2.481 1.088-4.366.938-7.062"/><path fill="#014118" d="M319 430h2l1 3h3c-.75 4.75-.75 4.75-3 7l3 2c-6.75-.875-6.75-.875-9-2l-1 4h-2l1-7 3-1c1.188-3.062 1.188-3.062 2-6"/><path fill="#013e17" d="M212 484l3 1v2h3v2l-3 1 2 1v5l-2.812-.562C211 495 211 495 208 496c-.652-1.734-.652-1.734-1-4 .996-2.141.996-2.141 2.438-4.25l1.433-2.141Z"/><path fill="#08461d" d="M189 196l1 2 3 1 1 2a78 78 0 0 0 5 2l-3 6-1-2a129 129 0 0 0-7-2v-2l-3-1Z"/><path fill="#043d18" d="M467 189l1 6c-3.833 2.706-6.325 3.326-11 3-.688-1.812-.688-1.812-1-4 2.596-3.75 6.595-5 11-5"/><path fill="#ecb407" d="M335 310l4 2q-.963 3.97-1.938 7.938l-1.089 4.464C335 328 335 328 334 329c-2.5.125-2.5.125-5 0-1-1-1-1-1.188-3.938C328 322 328 322 330 320l1 7h2l-.062-3.438C333 320 333 320 334 319c.232-1.515.412-3.038.562-4.562l.254-2.504Z"/><path fill="#033a15" d="M433 160l1 7-3 1a141 141 0 0 0-5 5l-2-1v-6h3v-3c3.333-3 3.333-3 6-3"/><path fill="#3c6a4b" d="M321 430l14 1v1h-9v5l3 1h-2l1 4 10 1v1q-3.093.04-6.188.062l-3.48.036A39.5 39.5 0 0 1 320 443l2-2-2-2 1.938-.75C324 437 324 437 324.75 434.875L325 433l-4 1Z"/><path fill="#033d17" d="M388 415h5v2h-2l.125 2.312C391 422 391 422 389 425c-3.695.074-3.695.074-8.125-.312l-4.445-.364L373 424v-1l2.301-.332 3.011-.48 2.989-.458c2.875-.778 3.937-1.375 5.699-3.73Z"/><path fill="#053e19" d="M178 298c3.321.008 5.992 2.68 6 5a6 6 0 0 1-6 6.001c-2.767-.007-4.994-2.234-5-6.001a5 5 0 0 1 5-5"/><path fill="#e3ad06" d="M330 231c2 0 2 0 4 1a96 96 0 0 1 2 6l1.105 3.359 1.083 3.391 1.105 3.422C340 251 340 251 339 253c-5.105-4.62-6.465-11.317-7-18l1-2h-2l-2 4c-.625-1.875-.625-1.875-1-4Z"/><path fill="#1a4e2b" d="M315 172l1 3-2.812-.312c-4.759-.049-8.478 2.1-12.637 4.218C298 180 298 180 294 180v-2l-2-1q4.058-1.263 8.125-2.5l4.57-1.406c3.694-.939 6.536-1.335 10.305-1.094"/><path fill="#08471d" d="M433 168v4l2 1-1.938 2.25c-1.845 2.461-2.623 3.785-3.062 6.75-3.092-2.53-3.909-5.225-5-9 4.625-5 4.625-5 8-5"/><path fill="#033c17" d="M356 420c3.829 1.453 5.121 3.429 7 7l-2 1a101 101 0 0 0-2 6c-2.653-2.653-4.616-5.497-6-9 .673-2.326 1.325-3.325 3-5"/><path fill="#0d431f" d="M482 301c3.147.699 6.026 1.761 9 3v-2h2c-.906 2.793-1.771 4.747-3.75 6.938-2.25 1.062-2.25 1.062-5.438.437L481 308c-1-3-1-3-.062-5.188Z"/></svg>