<svg xmlns="http://www.w3.org/2000/svg" width="664" height="664"><path fill="#fdfdfd" d="m332.25 137.75 2.203-.078c7.074.911 12.258 5.139 17.797 9.328 19.84 14.529 41.433 25.294 64.75 33l2.496.926c6.093 2.246 12.395 3.249 18.774 4.386 2.706.499 5.327 1.038 7.98 1.75 3.75.938 3.75.938 6.574 1.293 9.405 1.192 15.698 4.167 21.614 11.707 11.644 16.223 5.118 49.509 5.25 67.438l.261 32.594C480 326 480 326 479 331l-2 1c-.379 2.039-.379 2.039-.562 4.625l-.223 2.723L476 342c-.762 6.762-.762 6.762-2 8l-.391 3.051C470.63 372.361 460.286 390.41 449 406l-1.461 2.02c-2.982 4.045-6.093 7.989-9.227 11.918l-2.261 2.839C434 425 434 425 431 426a85 85 0 0 0-2 4c-5.598 7.338-12.387 12.834-19.699 18.387a69.4 69.4 0 0 0-7.676 7.051c-3.523 3.697-6.91 5.611-11.625 7.562h-2v2c-4.106 3.822-8.817 6.636-13.945 8.848C372 475 372 475 369.246 477.371c-3.523 2.853-6.975 4.672-11.058 6.629-5.237 2.544-10.377 5.131-15.391 8.09-3.198 1.62-6.24 2.063-9.797 2.098l-2 .042c-2.397-.276-3.896-1.058-6-2.23-9.235-4.755-9.235-4.755-13.312-6.062-3.173-1.107-5.132-2.786-7.688-4.938a186 186 0 0 0-4-2c-8.195-4.44-15.815-9.062-23-15a96 96 0 0 0-6.938-4.875c-3.066-2.128-5.43-4.493-8.062-7.125a159 159 0 0 0-5-3c-2.945-2.135-5.31-4.294-7.562-7.125C247 439 247 439 245.137 438.094c-2.759-1.413-4.581-3.274-6.762-5.469l-2.352-2.336c-1.864-2.109-2.783-3.809-4.023-6.289a241 241 0 0 0-4.875-5.625c-39.232-45.908-43.413-98.799-43.375-157.563l-.016-24.105c.401-29.759.401-29.759 9.641-40.457 5.887-5.046 11.171-6.817 18.813-7.812 6.547-.929 12.859-2.039 19.242-3.754 2.429-.647 4.858-1.179 7.32-1.684 3.445-.755 6.671-1.807 9.953-3.117a97 97 0 0 1 5.031-1.766c22.343-7.356 42.168-19.039 61.012-32.855 5.533-3.846 10.631-7.368 17.504-7.512"/><path fill="#05421b" d="M332.25 137.75l2.203-.078c7.074.911 12.258 5.139 17.797 9.328 19.84 14.529 41.433 25.294 64.75 33l2.496.926c6.093 2.246 12.395 3.249 18.774 4.386 2.706.499 5.327 1.038 7.98 1.75 3.75.938 3.75.938 6.574 1.293 9.405 1.192 15.698 4.167 21.614 11.707 11.644 16.223 5.118 49.509 5.25 67.438l.261 32.594C480 326 480 326 479 331l-2 1c-.379 2.039-.379 2.039-.562 4.625l-.223 2.723L476 342c-.762 6.762-.762 6.762-2 8l-.391 3.051C470.63 372.361 460.286 390.41 449 406l-1.461 2.02c-2.982 4.045-6.093 7.989-9.227 11.918l-2.261 2.839C434 425 434 425 431 426a85 85 0 0 0-2 4c-5.598 7.338-12.387 12.834-19.699 18.387a69.4 69.4 0 0 0-7.676 7.051c-3.523 3.697-6.91 5.611-11.625 7.562h-2v2c-4.106 3.822-8.817 6.636-13.945 8.848C372 475 372 475 369.246 477.371c-3.523 2.853-6.975 4.672-11.058 6.629-5.237 2.544-10.377 5.131-15.391 8.09-3.198 1.62-6.24 2.063-9.797 2.098l-2 .042c-2.397-.276-3.896-1.058-6-2.23-9.235-4.755-9.235-4.755-13.312-6.062-3.173-1.107-5.132-2.786-7.688-4.938a186 186 0 0 0-4-2c-8.195-4.44-15.815-9.062-23-15a96 96 0 0 0-6.938-4.875c-3.066-2.128-5.43-4.493-8.062-7.125a159 159 0 0 0-5-3c-2.945-2.135-5.31-4.294-7.562-7.125C247 439 247 439 245.137 438.094c-2.759-1.413-4.581-3.274-6.762-5.469l-2.352-2.336c-1.864-2.109-2.783-3.809-4.023-6.289a241 241 0 0 0-4.875-5.625c-39.232-45.908-43.413-98.799-43.375-157.563l-.016-24.105c.401-29.759.401-29.759 9.641-40.457 5.887-5.046 11.171-6.817 18.813-7.812 6.547-.929 12.859-2.039 19.242-3.754 2.429-.647 4.858-1.179 7.32-1.684 3.445-.755 6.671-1.807 9.953-3.117a97 97 0 0 1 5.031-1.766c22.343-7.356 42.168-19.039 61.012-32.855 5.533-3.846 10.631-7.368 17.504-7.512m-8.812 22.062C301.283 176.338 277.217 188.38 251 197l-6.312 2.094c-9.645 2.749-19.417 4.114-29.313 5.66C209 206 209 206 204 209c-5.687 8.531-2.255 44.815-2.25 53.25l-.016 28.078C202.275 338.503 214.209 379.954 248 415l3.398 3.555c8.044 8.243 16.32 15.633 25.602 22.445l3.953 2.922c10.639 7.69 21.71 14.473 33.047 21.078l4.613 2.789 4.262 2.523 3.742 2.239C330 474 330 474 336 473c53.399-29.06 100.47-66.522 119.684-126.203 5.394-19.657 6.438-39.094 6.378-59.422l-.027-12.102L462 266l-8-1c-2.469-1.828-2.469-1.828-4-5-.469-5.422-.469-5.422-.5-11.75-.049-9.88-1.01-17.98-7.812-25.562l-1.614-1.864c-6.35-5.584-13.647-7.272-21.699-9.386-11.839-3.116-11.839-3.116-17.375-6.438-1.262-2.525-1.099-4.312-1.062-7.125l.027-2.758L400 193l-2.938-1.25c-21.741-9.366-41.58-20.474-60.683-34.512-5.914-3.917-7.759-1.423-12.941 2.574"/><path fill="#07431c" d="M332.25 137.75l2.203-.078c7.074.911 12.258 5.139 17.797 9.328 19.827 14.519 41.432 25.334 64.75 33l2.883.996c3.673 1.267 7.276 2.384 11.117 3.004l-3 1-1 3a598 598 0 0 1-5.348 2.891c-2.385 1.601-2.937 3.392-3.652 6.109l-1 2c-29.456-5.644-57.106-23.722-81-41l-3-2c-4.926 1.231-7.712 3.502-11.812 6.5-7.853 5.612-15.782 10.761-24.188 15.5l-4.727 2.684C278.986 187.952 265.374 193.274 251 198l-6.309 2.09c-7.221 2.061-14.339 3.352-21.753 4.535-13.516 2.164-13.516 2.164-17.938 4.375-5.687 8.531-2.255 44.815-2.25 53.25l-.016 28.078c.62 55.233 17.285 96.423 56.266 134.672-.875 2.465-.875 2.465-2 5a70 70 0 0 1-4 1c-1.125 1.875-1.125 1.875-2 4-2 3-2 3-3.773 4.012C245 439 245 439 242.273 436.832l-2.898-3.02-2.914-2.98c-2.066-2.377-3.12-4.081-4.461-6.832a241 241 0 0 0-4.875-5.625c-39.232-45.908-43.413-98.799-43.375-157.563l-.016-24.105c.401-29.759.401-29.759 9.641-40.457 5.887-5.046 11.171-6.817 18.813-7.812 6.547-.929 12.859-2.039 19.242-3.754 2.429-.647 4.858-1.179 7.32-1.684 3.445-.755 6.671-1.807 9.953-3.117a97 97 0 0 1 5.031-1.766c22.343-7.356 42.168-19.039 61.012-32.855 5.533-3.846 10.631-7.368 17.504-7.512"/><path fill="#04411a" d="M400 261c3.576 2.511 4.783 4.043 5.75 8.312-2.909 14.302-26.211 30.149-36.219 40.094-5.337 5.377-10.542 10.892-15.531 16.594a2236 2236 0 0 1-18 18.438l-9.688 9.871C318 362 318 362 311 363c-5.596-2.099-7.868-6.278-12-11a2840 2840 0 0 0-15.812-15.812c-17.047-16.921-17.047-16.921-17.626-22.126.097-3.276.308-3.904 2.5-6.562 3.711-1.895 5.822-2.162 9.938-1.5l35 35c6.484-5.558 12.468-11.335 18.5-17.375l6.031-6.023c4.297-4.401 8.419-8.973 12.469-13.602a2934 2934 0 0 1 21.5-22l11.656-11.875C393 261 393 261 400 261"/><path fill="#73ae2b" d="M400 194c4.533.65 8.915 2.065 13.312 3.312 24.978 6.953 24.978 6.953 38.165 7.903 4.315.962 6.4 2.713 9.523 5.785 3.027 6.054 1.077 22.494 1.062 28.625l-.027 14.852L462 266c-8 0-8 0-10.965-2.262-2.868-5.268-2.601-9.585-2.597-15.55-.007-10.822-1.516-18.189-8.583-26.583-7.887-6.824-18.223-8.277-28.046-10.824-4.813-1.476-7.998-2.602-11.809-5.781-1.627-3.253-1.115-6.392-1-10Z"/><path fill="#f9b40c" d="M226.313 373.5c4.547.617 6.804 2.084 9.688 5.5 1.8 2.655 3.482 5.364 5.155 8.102 5.31 8.345 12.123 15.677 18.844 22.898l1.856 2.02c13.911 14.565 31.863 26.23 49.265 36.14 2.88 1.84 2.88 1.84 4.88 4.84.264 1.938.264 1.938.25 4l.014 2.062c-.264 1.938-.264 1.938-2.264 4.938-38.084-13.322-74.76-53.182-94-87 2.237-2.542 2.774-2.966 6.311-3.5"/><path fill="#0f4923" d="M259 426c3.721 2.754 7.408 5.524 11.016 8.426A301.4 301.4 0 0 0 309 461l-2 2 .062 3.375c-.066 3.829-.479 4.934-3.062 7.625l3 1 1 3c1.457 3.886 3.479 4.961 7 7v2c-4.55-1.27-7.407-2.974-11-6a186 186 0 0 0-4-2c-8.195-4.44-15.815-9.062-23-15a96 96 0 0 0-6.938-4.875c-3.066-2.128-5.43-4.493-8.062-7.125a159 159 0 0 0-5-3c-4.433-3.103-7.012-6.56-10-11h2l.75-1.75c1.435-2.583 3.101-4.228 5.25-6.25l2.25-2.25Z"/><path fill="#0f4922" d="M221 380h2c1.07 1.687 2.053 3.429 3 5.188 8.605 15.156 20.636 27.681 33 39.812-.875 2.465-.875 2.465-2 5a70 70 0 0 1-4 1c-1.125 1.875-1.125 1.875-2 4-2 3-2 3-3.773 4.012C245 439 245 439 242.273 436.832l-2.898-3.02-2.914-2.98c-2.066-2.377-3.12-4.081-4.461-6.832a241 241 0 0 0-4.875-5.625C210.077 398.49 210.077 398.49 207 387l2-1 2 5c2.565-1.099 4.096-2.098 6.062-4.125C219 385 219 385 222 385Z"/><path fill="#dde0de" d="M472 348l2 2c-1.305 20.004-13.51 40.13-25 56l-1.461 2.02c-2.982 4.045-6.093 7.989-9.227 11.918l-2.261 2.839C434 425 434 425 431 426a85 85 0 0 0-2 4c-5.598 7.338-12.387 12.834-19.699 18.387a69.4 69.4 0 0 0-7.676 7.051c-3.523 3.697-6.91 5.611-11.625 7.562h-2v2c-4.106 3.822-8.817 6.636-13.945 8.848C372 475 372 475 369.246 477.371c-3.523 2.853-6.975 4.672-11.058 6.629-5.237 2.544-10.377 5.131-15.391 8.09-3.198 1.62-6.24 2.063-9.797 2.098l-2 .042c-2.344-.27-3.958-1.077-6-2.23l2.578-.27c30.021-4.439 62.311-30.974 84.422-50.73l2.73-2.398c8.939-7.925 16.915-16.176 24.27-25.602l2.664-3.406c14.144-18.646 23.449-39.3 30.336-61.594"/><path fill="#72ae29" d="M460 213h2v53c-8 0-8 0-10.473-1.344-2.462-4.282-2.015-8.281-1.965-13.156l.004-5.656C450 241 450 241 453 237a753 753 0 0 0 4-6l2 1Z"/><path fill="#04421a" d="M306 462c5.521.425 10.735 2.444 15 6 .637 2.609.637 2.609 1 5l2 1-2 5-.75 2.75c-1.25 2.25-1.25 2.25-4 3.312-4.191-.08-6.07-1.412-9.25-4.062v-2l-3-1h2v-3l-4-1 1.5-2.062c1.804-3.533 1.73-6.024 1.5-9.938"/><path fill="#f6b209" d="M288.438 437.063c2.562.938 2.562.938 4.438 3.312 2.755 3.404 5.055 4.139 9.124 5.625v2l4 2-3 8a1563 1563 0 0 1-12-7l-2.098-1.18c-2.748-1.633-3.788-2.464-4.776-5.57L284 442h-2c1.228-3.682 2.432-5.04 6.438-4.938"/><path fill="#75b02b" d="M453 244h6l-.035 3.465-.027 4.473-.036 4.464C459 260 459 260 460 261a99 99 0 0 1 0 5c-3.729.424-5.413.452-8.438-1.875-2.257-4.515-1.429-8.27-.562-13.125h2Z"/><path fill="#114923" d="M278 306c2.438 1.5 2.438 1.5 4 3l-1 5h-3l-1-5v2c-2.905 2.042-4.401 3-8 3v5l1.75.125c3.396 1.321 4.33 3.825 6.25 6.875 1.939 2.388 3.958 4.7 6 7-3 0-3 0-5.848-2.52l-3.214-3.292-3.223-3.27c-3.755-4.036-5.256-6.358-5.09-11.977C266 310 266 310 268.062 307.5c3.646-1.861 5.892-2.015 9.938-1.5"/><path fill="#e7ede8" d="M456 266h6q.04 10.688.062 21.375l.036 12.023C462 310 462 310 461 320h-1c-1.856-9.28-1.088-18.883-1.062-28.312l.027-12.801L459 269l-3-1Z"/><path fill="#6e8973" d="M477 206c5.809 8.714 2.628 53.159 2.688 61.375l.261 32.648C480 326 480 326 479 331h-1c-2.252-22.521-1.087-45.528-1.062-68.125l.027-32.07Z"/><path fill="#eaeeec" d="M265 319h3l7 8a2642 2642 0 0 0 15.938 16l8.527 8.5L306 358l-2 2a12294 12294 0 0 1-17-16.875l-9.562-9.492C270 326 270 326 270 324l-1.938-.812C266 322 266 322 265 319"/><path fill="#b2c0b7" d="M277 463c6.571 1.643 11.798 5.937 17.422 9.629 4.745 2.457 7.334 2.892 12.578 2.371l1 3c1.457 3.886 3.479 4.961 7 7v2c-4.55-1.27-7.407-2.974-11-6a186 186 0 0 0-4-2c-8.085-4.38-16.168-8.765-23-15Z"/><path fill="#6ba928" d="M460 213h2v53h-2v-5l-2-1 1-2c.238-7.54.415-15.082.562-22.625l.254-12.602Z"/><path fill="#77b22f" d="M417 200h6v3l2 3c-.375 2.688-.375 2.688-1 5l2 1c-4.233 1.186-7.104.719-11.312-.438l-3.239-.871L409 210l1-3h5l1-4h2l1-2Z"/><path fill="#e4e3e2" d="M480 217h1v100h-1Z"/><path fill="#d7dcd8" d="M472 348l2 2c-.348 5.505-2.009 10.339-3.875 15.5l-1.555 4.344A228 228 0 0 1 464 381h-2c-1.623-4.87.9-8.461 2.75-13.125 2.595-6.581 5.075-13.143 7.25-19.875"/><path fill="#e9efeb" d="M383 295l2 1-2.555 2.449-3.32 3.239-3.305 3.199c-2.599 2.869-3.52 4.599-4.82 8.113-1.875 2.02-1.875 2.02-4 3.812l-2.125 1.833C363 320 363 320 361 320l-.812 1.812c-1.187 2.186-2.284 3.601-4.188 5.188h-2c5.086-12.318 19.722-22.837 29-32"/><path fill="#75b02d" d="M400 194c3.574.496 6.693 1.583 10 3-1.394 4.435-3.606 6.874-7 10-2.342-1.756-3.856-3.037-4.301-6.012-.011-1.998.138-3.996.301-5.988Z"/><path fill="#f4b20a" d="M221 375l1 2c2.285.414 2.285.414 5.062.625l2.786.227L232 378c1.022 3.252 1.187 4.589-.25 7.75C230 388 230 388 227 389a777 777 0 0 1-3.562-5.875l-2.004-3.305L220 377Z"/><path fill="#f4b10a" d="M265 421l6 2v11c-3.927 0-4.819-1.279-7.688-3.875l-2.449-2.18C259 426 259 426 259 424l2.438-.375L264 423Z"/><path fill="#eaf0ec" d="M351 328l3 1c-11.534 11.707-11.534 11.707-15.875 15.375-6.424 5.454-12.209 11.634-18.125 17.625l-2-1Z"/><path fill="#013c17" d="M314 342l2 3c-3.388 4.692-6.782 9.03-11 13l-4-5 2.336-1.898 3.039-2.477 3.023-2.461C312 344 312 344 314 342"/><path fill="#235735" d="M189 341l3 1 1 6 3 1 1 5h-2l2 1c.289 2.025.573 4.052.754 6.09C198 363 198 363 199 365l-2 3a4017 4017 0 0 1-3.438-10.125l-1.933-5.695c-1.199-3.811-2.158-7.238-2.629-11.18"/><path fill="#fdf8ea" d="M247 394h2c1.391 1.576 2.712 3.214 4 4.875 11.481 14.366 11.481 14.366 17 17.125l-1 3c-7.921-6.543-15.911-13.679-22-22Z"/><path fill="#78b331" d="M455 230l2 1-2.93 5.078c-2.969 5.331-3.435 9.097-3.695 15.172l-.227 4.953L450 260h-1l-1-26h2v-2c2.375-1.062 2.375-1.062 5-2"/><path fill="#fab913" d="M289 436c4.588 1.147 7.721 3.096 11.75 5.562l4.109 2.504L308 446l-1 2h-5v-2l-1.688-.312c-4.669-1.389-8.135-4.041-11.312-7.688Z"/><path fill="#fbb914" d="M223 374c4.42-.442 6.476-.343 10.25 2.125 2.716 2.839 4.241 5.271 5.75 8.875l-5 1-2-7-10-2Z"/><path fill="#e6e6e6" d="M427 437h3c-.386 2.798-.801 3.821-2.938 5.75C425 444 425 444 423 444c1.074-2.915 1.778-4.778 4-7"/><path fill="#e5e5e5" d="M448 417c-1.477 4.677-1.477 4.677-4.125 6.312L442 424c.312-2.375.312-2.375 1-5 3-2 3-2 5-2m-11 10 3 1-1 3h-2l-1 3-3 1Zm20-26h2l-1 3Z"/></svg>